<?xml version="1.0" encoding="UTF-8"?>
<svg version="1.1" xmlns="http://www.w3.org/2000/svg" width="225" height="225">
<path d="M0 0 C10.56 0 21.12 0 32 0 C32 2.31 32 4.62 32 7 C30.69667117 8.03880303 29.36235895 9.03991882 28 10 C27.35670908 12.79556905 27.35670908 12.79556905 27.390625 15.98046875 C27.35839844 17.14384766 27.32617188 18.30722656 27.29296875 19.50585938 C27.27169922 21.32827148 27.27169922 21.32827148 27.25 23.1875 C27.20552734 25.02731445 27.20552734 25.02731445 27.16015625 26.90429688 C27.08937101 29.93626453 27.03671587 32.96745933 27 36 C28.31355469 35.94199219 29.62710938 35.88398437 30.98046875 35.82421875 C32.71611023 35.77730952 34.45179023 35.73181061 36.1875 35.6875 C37.05181641 35.64560547 37.91613281 35.60371094 38.80664062 35.56054688 C45.31856056 35.43579745 45.31856056 35.43579745 48.90625 38.40625 C49.5971875 39.2621875 50.288125 40.118125 51 41 C54.16645474 42.79320824 54.16645474 42.79320824 57 44 C57.886875 43.05125 58.77375 42.1025 59.6875 41.125 C67.90410085 34.12933984 80.90204093 35.79600083 91 36 C91 30.39 91 24.78 91 19 C83.29629808 18.20055998 83.29629808 18.20055998 76.5 21.125 C74.0284446 23.96728871 72.45030927 26.53537229 71 30 C69.00045254 30.04254356 66.99958364 30.04080783 65 30 C57.91323612 22.91323612 63.34538774 10.01624439 63 0 C86.1 0 109.2 0 133 0 C134.08266248 3.24798743 134.03436186 5.35896827 133.87890625 8.76171875 C133.83056641 9.87998047 133.78222656 10.99824219 133.73242188 12.15039062 C133.67634766 13.31763672 133.62027344 14.48488281 133.5625 15.6875 C133.51029297 16.86634766 133.45808594 18.04519531 133.40429688 19.25976562 C133.27453806 22.17344094 133.13956868 25.08678078 133 28 C126.2421875 28.171875 126.2421875 28.171875 124.0625 26.625 C123 25 123 25 123 23 C122.34 23 121.68 23 121 23 C120.4225 22.360625 119.845 21.72125 119.25 21.0625 C116.49964482 18.54134108 114.62934798 18.47102194 111 18 C111.01486366 28.62262993 111.05640653 39.24478744 111.13209057 49.86716843 C111.16639339 54.79952841 111.19147565 59.73157758 111.19555664 64.6640625 C111.19983255 69.42353726 111.22823618 74.18231049 111.27343178 78.94156647 C111.28642949 80.75800746 111.29070643 82.57453231 111.28615379 84.3910141 C111.28126375 86.93429981 111.30726637 89.47552247 111.34057617 92.01855469 C111.32763771 93.14712387 111.32763771 93.14712387 111.31443787 94.29849243 C111.31261301 96.66830939 111.31261301 96.66830939 112 100 C114.39591622 102.37497662 114.39591622 102.37497662 117 104 C117.48828125 106.359375 117.48828125 106.359375 117.3125 108.75 C117.24482422 109.94882813 117.24482422 109.94882813 117.17578125 111.171875 C117.11777344 111.77515625 117.05976563 112.3784375 117 113 C117.99 113 118.98 113 120 113 C120.43474157 105.53693639 120.61382509 100.9533227 116 95 C116.29604483 91.36604971 118.00202777 89.64775805 120.5625 87.1875 C121.20316406 86.56230469 121.84382813 85.93710938 122.50390625 85.29296875 C124.54472269 83.41822814 126.61542922 81.6045162 128.71484375 79.796875 C133.35298816 75.75695656 137.67681033 71.43439112 142 67.0625 C143.16208984 65.89364258 143.16208984 65.89364258 144.34765625 64.70117188 C146.23410757 62.8030758 148.11816245 60.90266851 150 59 C150.66 59.66 151.32 60.32 152 61 C151.89511337 63.87389376 151.67123795 66.59342551 151.3125 69.4375 C151.21437012 70.25138184 151.11624023 71.06526367 151.01513672 71.90380859 C149.82087037 81.20136592 147.86084527 89.8929847 143 98 C142.63777344 98.62132812 142.27554688 99.24265625 141.90234375 99.8828125 C137.12760113 107.09603224 129.85074979 111.91423016 123 117 C122.36787598 117.47405273 121.73575195 117.94810547 121.08447266 118.43652344 C112.90031168 124.57098024 104.57768242 130.42530509 96 136 C92.35761994 132.48639096 89.53071633 129.01366659 86.8203125 124.76953125 C82.35293835 120.42678342 75.76634014 120.67078074 69.875 120.75 C68.76838013 120.76123901 68.76838013 120.76123901 67.6394043 120.77270508 C53.52138247 120.86209417 53.52138247 120.86209417 42 128 C41.34 128 40.68 128 40 128 C40 128.66 40 129.32 40 130 C38.37446717 131.70680947 36.70884005 133.37660195 35 135 C30.15848103 133.41719572 26.51972607 130.64974437 22.5 127.625 C21.84902344 127.14289063 21.19804688 126.66078125 20.52734375 126.1640625 C17.70561429 124.06629191 14.9343681 121.94598273 12.21875 119.7109375 C10.0256388 117.82582583 10.0256388 117.82582583 7 117 C7 116.01 7 115.02 7 114 C4.69 113.67 2.38 113.34 0 113 C-0.10884119 111.58506449 -0.18597617 110.16767057 -0.25 108.75 C-0.29640625 107.96109375 -0.3428125 107.1721875 -0.390625 106.359375 C0 104 0 104 1.99206543 102.38183594 C4.85545335 98.98525103 4.56040299 95.77410787 4.51757812 91.53125 C4.52809204 90.25254028 4.52809204 90.25254028 4.53881836 88.94799805 C4.55641568 86.1316668 4.5447696 83.31634136 4.53125 80.5 C4.53394442 78.54231575 4.53782642 76.5846328 4.54284668 74.62695312 C4.54874408 70.52460993 4.54017093 66.42261518 4.52148438 62.3203125 C4.49869475 57.06079372 4.51181653 51.80209136 4.53577423 46.54260254 C4.55022563 42.5002629 4.54562923 38.45811695 4.53526306 34.41577148 C4.53259396 32.47648014 4.53587197 30.53717123 4.54518127 28.59790039 C4.55533602 25.8877095 4.53986128 23.17884225 4.51757812 20.46875 C4.52567505 19.66655029 4.53377197 18.86435059 4.54211426 18.0378418 C4.52030365 13.51639552 4.52030365 13.51639552 1.96765137 9.97070312 C0 8 0 8 0 0 Z M30.35351562 58.53710938 C26.94204853 62.10711768 27.3108645 65.01127195 27.40625 69.78125 C27.40618958 71.0569989 27.40618958 71.0569989 27.40612793 72.35852051 C27.41148157 74.15396528 27.42905785 75.94940957 27.45800781 77.74462891 C27.49985733 80.49063839 27.49907656 83.23419419 27.4921875 85.98046875 C27.50268067 87.72657952 27.51561946 89.47267766 27.53125 91.21875 C27.53145142 92.03863403 27.53165283 92.85851807 27.53186035 93.70324707 C27.62346784 98.12243868 27.93830342 100.74281248 31 104 C31.65290127 107.01032339 31.77311561 109.91437235 32 113 C26.06 113 20.12 113 14 113 C14 113.33 14 113.66 14 114 C22.34332544 115.19190363 30.59323022 115.09283549 39 115 C40.06163298 107.24682748 40.06163298 107.24682748 37.62890625 100.33984375 C37.07074219 99.98019531 36.51257813 99.62054688 35.9375 99.25 C34.968125 98.5075 33.99875 97.765 33 97 C32.75934698 93.87151076 33.2717758 91.03868097 34 88 C34.99 88 35.98 88 37 88 C37.226875 88.680625 37.45375 89.36125 37.6875 90.0625 C38.90505356 93.18573222 38.90505356 93.18573222 41.5625 95.875 C45.64499883 101.24228522 44.82977745 108.58828411 45 115 C54.24 115 63.48 115 73 115 C73 96.52 73 78.04 73 59 C81 58 81 58 84 60 C84.32946785 62.69627293 84.46803254 65.15820276 84.46875 67.859375 C84.48017029 69.03237152 84.48017029 69.03237152 84.49182129 70.22906494 C84.50263814 71.88672696 84.50546895 73.54445722 84.50097656 75.20214844 C84.50000878 77.72708757 84.54150952 80.24894122 84.5859375 82.7734375 C84.59114814 84.38541035 84.59383263 85.99739373 84.59375 87.609375 C84.61014526 88.35958923 84.62654053 89.10980347 84.64343262 89.88275146 C84.56857987 95.62486456 82.89257856 97.84473209 79 102 C78.19775987 105.17855763 78.19775987 105.17855763 78.1875 108.375 C78.13980469 109.43460938 78.09210938 110.49421875 78.04296875 111.5859375 C78.02878906 112.38257813 78.01460938 113.17921875 78 114 C80.31 114 82.62 114 85 114 C84.95359375 113.25234375 84.9071875 112.5046875 84.859375 111.734375 C84.82328125 110.74953125 84.7871875 109.7646875 84.75 108.75 C84.70359375 107.77546875 84.6571875 106.8009375 84.609375 105.796875 C85 103 85 103 86.98901367 101.34448242 C89.83960207 98.02116078 89.59323378 94.8724974 89.56640625 90.69140625 C89.57260483 89.88767075 89.57880341 89.08393524 89.58518982 88.25584412 C89.59228199 86.55884002 89.5891244 84.86176626 89.57641602 83.16479492 C89.56256176 80.57404882 89.59660937 77.98692476 89.63476562 75.39648438 C89.63571701 73.74479079 89.63385696 72.09309269 89.62890625 70.44140625 C89.64216446 69.67043106 89.65542267 68.89945587 89.66908264 68.1051178 C89.59907281 64.04142525 89.18452537 62.22662156 86.58569336 59.03491211 C82.52209306 55.83690356 80.19591596 55.567007 75 56 C70.75971381 58.2587937 70.75971381 58.2587937 68 62 C67.9097165 63.63417595 67.88244342 65.27202837 67.88647461 66.90869141 C67.88655014 67.92959869 67.88662567 68.95050598 67.88670349 70.00234985 C67.89186478 71.10759003 67.89702606 72.2128302 67.90234375 73.3515625 C67.90446617 75.04531509 67.90446617 75.04531509 67.90663147 76.77328491 C67.91224256 80.39054988 67.92479697 84.00775364 67.9375 87.625 C67.94251357 90.07291577 67.94707672 92.52083252 67.95117188 94.96875 C67.96221561 100.97919036 67.97948771 106.98958479 68 113 C62.06 113 56.12 113 50 113 C50.02618408 111.48124268 50.05236816 109.96248535 50.0793457 108.39770508 C50.16987895 102.76032252 50.2272618 97.12300415 50.2746582 91.48510742 C50.29979496 89.04554436 50.33390946 86.60605655 50.37719727 84.16674805 C50.43788229 80.65915354 50.466219 77.1525551 50.48828125 73.64453125 C50.51408768 72.55477493 50.5398941 71.46501862 50.56648254 70.34223938 C50.61333139 64.1561427 50.61333139 64.1561427 47.65307617 58.86206055 C41.1297624 54.28367514 37.1116939 54.61187963 30.35351562 58.53710938 Z M87 113 C87 113.33 87 113.66 87 114 C95.91 114 104.82 114 114 114 C114 113.67 114 113.34 114 113 C105.09 113 96.18 113 87 113 Z " fill="#303031" transform="translate(52,55)"/>
<path d="M0 0 C0.93585938 0.5053125 1.87171875 1.010625 2.8359375 1.53125 C26.20840325 14.80268166 44.85898968 38.6212367 52.42285156 64.45239258 C54.61660564 72.54667529 56.15136956 80.33863677 56.203125 88.75 C56.20882507 89.48516846 56.21452515 90.22033691 56.22039795 90.9777832 C56.22980611 92.53091006 56.2363652 94.0840565 56.24023438 95.63720703 C56.24985759 97.9655444 56.28088528 100.29296608 56.3125 102.62109375 C56.37976343 112.17600009 55.48628835 120.72326895 53 130 C52.59624146 131.51001587 52.59624146 131.51001587 52.18432617 133.05053711 C47.74691105 148.71857266 38.8838734 162.14248936 28 174 C27.33871094 174.85207031 26.67742187 175.70414063 25.99609375 176.58203125 C22.28930747 181.07224789 17.56570945 184.42422755 13 188 C12.15308594 188.68578125 11.30617187 189.3715625 10.43359375 190.078125 C-5.20292468 202.20537899 -26.04916077 210.03012678 -45.86328125 210.23828125 C-46.98865547 210.25038887 -46.98865547 210.25038887 -48.13676453 210.26274109 C-49.72437274 210.27652154 -51.31200982 210.28727047 -52.8996582 210.29516602 C-54.48861673 210.30658118 -56.07754019 210.32686285 -57.66625977 210.35668945 C-88.11030957 210.92630218 -114.72433941 198.77856626 -136.625 177.8125 C-157.73252454 155.96651979 -168.34215729 128.2106493 -169.375 98 C-168.44687205 70.85225739 -159.98821853 47.10559211 -143 26 C-142.20335937 24.97326172 -142.20335937 24.97326172 -141.390625 23.92578125 C-140.31663922 22.5706639 -139.16839578 21.27461358 -138 20 C-137.34 20 -136.68 20 -136 20 C-136 19.34 -136 18.68 -136 18 C-135.34 18 -134.68 18 -134 18 C-134 17.34 -134 16.68 -134 16 C-123.88926963 6.24005007 -111.05633775 -1.9195747 -98 -7 C-96.91847656 -7.43054688 -95.83695312 -7.86109375 -94.72265625 -8.3046875 C-63.02756151 -19.93654637 -29.19792655 -16.09777913 0 0 Z M-81 2 C-81.98226562 2.26683594 -82.96453125 2.53367187 -83.9765625 2.80859375 C-95.48271646 6.22400884 -106.87674758 12.18277334 -116 20 C-116.78632812 20.66644531 -117.57265625 21.33289063 -118.3828125 22.01953125 C-138.30185488 39.41062177 -151.97308625 62.29968664 -154 89 C-155.34059532 117.33709847 -147.98308338 143.78897946 -128.6875 165.0625 C-110.98441147 184.05368084 -88.00629667 196.83637039 -61.72338867 198.11035156 C-33.78515016 198.82062026 -10.48003307 191.8949639 11 174 C11.67417969 173.47792969 12.34835938 172.95585937 13.04296875 172.41796875 C31.16395276 158.02899517 42.20479789 133.5504819 45 111 C47.15254837 82.14513785 40.27048389 56.66080349 22 34 C20.93845703 32.59427734 20.93845703 32.59427734 19.85546875 31.16015625 C19.24316406 30.44730469 18.63085938 29.73445313 18 29 C17.34 29 16.68 29 16 29 C16 28.34 16 27.68 16 27 C0.04926923 10.11361183 -25.01709027 -0.59256303 -48.05078125 -1.30078125 C-50.13793711 -1.31987962 -52.22528544 -1.32344215 -54.3125 -1.3125 C-55.95835083 -1.30621582 -55.95835083 -1.30621582 -57.63745117 -1.29980469 C-65.81518878 -1.18606535 -73.14213139 -0.38210977 -81 2 Z " fill="#2E547F" transform="translate(169,15)"/>
<path d="M0 0 C2.90978862 2.90978862 2.34349694 5.95705621 2.37109375 9.859375 C2.38012222 10.64137268 2.3891507 11.42337036 2.39845276 12.22906494 C2.41297495 13.88672041 2.42184688 15.54443346 2.42553711 17.20214844 C2.43739159 19.72691062 2.48651593 22.24919466 2.53710938 24.7734375 C2.54657869 26.38540476 2.55381129 27.99738702 2.55859375 29.609375 C2.57812607 30.35958923 2.59765839 31.10980347 2.61778259 31.88275146 C2.56755156 37.78246287 0.85980832 39.90435206 -3 44 C-3.79885873 46.94800417 -3.79885873 46.94800417 -3.8125 49.875 C-3.86019531 50.84179688 -3.90789062 51.80859375 -3.95703125 52.8046875 C-3.97121094 53.52914062 -3.98539062 54.25359375 -4 55 C-2.35 55 -0.7 55 1 55 C1 54.67 1 54.34 1 54 C11.23 54 21.46 54 32 54 C32 51.03 32 48.06 32 45 C32.66 45.33 33.32 45.66 34 46 C34 48.97 34 51.94 34 55 C34.99 55 35.98 55 37 55 C37.43474157 47.53693639 37.61382509 42.9533227 33 37 C33.29604483 33.36604971 35.00202777 31.64775805 37.5625 29.1875 C38.20316406 28.56230469 38.84382813 27.93710938 39.50390625 27.29296875 C41.54472269 25.41822814 43.61542922 23.6045162 45.71484375 21.796875 C50.35298816 17.75695656 54.67681033 13.43439112 59 9.0625 C60.16208984 7.89364258 60.16208984 7.89364258 61.34765625 6.70117188 C63.23410757 4.8030758 65.11816245 2.90266851 67 1 C67.99 1.99 67.99 1.99 69 3 C68.89511337 5.87389376 68.67123795 8.59342551 68.3125 11.4375 C68.21437012 12.25138184 68.11624023 13.06526367 68.01513672 13.90380859 C66.82087037 23.20136592 64.86084527 31.8929847 60 40 C59.63777344 40.62132812 59.27554688 41.24265625 58.90234375 41.8828125 C54.12760113 49.09603224 46.85074979 53.91423016 40 59 C39.36787598 59.47405273 38.73575195 59.94810547 38.08447266 60.43652344 C29.90031168 66.57098024 21.57768242 72.42530509 13 78 C9.35761994 74.48639096 6.53071633 71.01366659 3.8203125 66.76953125 C-0.64706165 62.42678342 -7.23365986 62.67078074 -13.125 62.75 C-14.23161987 62.76123901 -14.23161987 62.76123901 -15.3605957 62.77270508 C-29.47861753 62.86209417 -29.47861753 62.86209417 -41 70 C-41.66 70 -42.32 70 -43 70 C-43 70.66 -43 71.32 -43 72 C-44.62553283 73.70680947 -46.29115995 75.37660195 -48 77 C-52.84151897 75.41719572 -56.48027393 72.64974437 -60.5 69.625 C-61.15097656 69.14289063 -61.80195312 68.66078125 -62.47265625 68.1640625 C-65.29438571 66.06629191 -68.0656319 63.94598273 -70.78125 61.7109375 C-72.9743612 59.82582583 -72.9743612 59.82582583 -76 59 C-76 58.01 -76 57.02 -76 56 C-78.31 55.67 -80.62 55.34 -83 55 C-83 54.67 -83 54.34 -83 54 C-72.77 54 -62.54 54 -52 54 C-52 51.36 -52 48.72 -52 46 C-51.67 46 -51.34 46 -51 46 C-51 48.97 -51 51.94 -51 55 C-55.455 55.495 -55.455 55.495 -60 56 C-58.51886719 55.98259766 -58.51886719 55.98259766 -57.0078125 55.96484375 C-55.72648437 55.95582031 -54.44515625 55.94679687 -53.125 55.9375 C-51.84882812 55.92589844 -50.57265625 55.91429687 -49.2578125 55.90234375 C-46 56 -46 56 -44 57 C-43.71173067 49.11980968 -43.71173067 49.11980968 -46.40234375 42.0234375 C-48.19442459 40.51043631 -48.19442459 40.51043631 -51 39 C-50.34 36.03 -49.68 33.06 -49 30 C-48.01 30 -47.02 30 -46 30 C-44.2109375 32.37109375 -44.2109375 32.37109375 -42.375 35.4375 C-40.43951068 38.90765662 -40.43951068 38.90765662 -38 42 C-37.92686433 44.53049402 -37.90752473 47.03304837 -37.9375 49.5625 C-37.94201172 50.27341797 -37.94652344 50.98433594 -37.95117188 51.71679688 C-37.96299136 53.47790013 -37.98092737 55.23896036 -38 57 C-37.01 56.67 -36.02 56.34 -35 56 C-33.25063696 55.90647005 -31.49795403 55.86930054 -29.74609375 55.8671875 C-28.72708984 55.86589844 -27.70808594 55.86460937 -26.65820312 55.86328125 C-25.59537109 55.86714844 -24.53253906 55.87101562 -23.4375 55.875 C-21.83745117 55.86919922 -21.83745117 55.86919922 -20.20507812 55.86328125 C-18.67850586 55.86521484 -18.67850586 55.86521484 -17.12109375 55.8671875 C-15.72008423 55.86887939 -15.72008423 55.86887939 -14.29077148 55.87060547 C-12 56 -12 56 -10 57 C-10.07064667 56.39146683 -10.14129333 55.78293365 -10.21408081 55.15596008 C-10.86822256 49.15841429 -11.14752777 43.26076503 -11.1328125 37.23046875 C-11.13376923 36.34643875 -11.13472595 35.46240875 -11.13571167 34.55158997 C-11.13638637 32.70211719 -11.13458216 30.85264194 -11.13037109 29.00317383 C-11.12498034 26.17719235 -11.13035669 23.35136746 -11.13671875 20.52539062 C-11.13605847 18.71874965 -11.13477834 16.91210877 -11.1328125 15.10546875 C-11.13483673 14.26582077 -11.13686096 13.42617279 -11.13894653 12.56108093 C-11.1076724 4.74099823 -11.1076724 4.74099823 -10 1 C-6.73325298 -1.66179387 -3.90560211 -1.01885272 0 0 Z M4 55 C4 55.33 4 55.66 4 56 C12.91 56 21.82 56 31 56 C31 55.67 31 55.34 31 55 C22.09 55 13.18 55 4 55 Z " fill="#4A6184" transform="translate(135,113)"/>
<path d="M0 0 C0.97324219 -0.00257812 1.94648437 -0.00515625 2.94921875 -0.0078125 C5.3125 0.125 5.3125 0.125 6.3125 1.125 C6.58229173 2.76564455 6.79195724 4.41623164 6.97680664 6.06860352 C7.09685562 7.12382706 7.2169046 8.1790506 7.34059143 9.26625061 C7.46667282 10.41717697 7.59275421 11.56810333 7.72265625 12.75390625 C7.85441757 13.93210434 7.98617889 15.11030243 8.12193298 16.32420349 C8.4005896 18.82665429 8.67701577 21.32935429 8.95141602 23.83227539 C9.37059452 27.64740382 9.79903224 31.46141019 10.22851562 35.27539062 C10.4979584 37.70566686 10.76685586 40.13600363 11.03515625 42.56640625 C11.16326187 43.70316299 11.29136749 44.83991974 11.4233551 46.01112366 C12.04670704 51.75576217 12.45597974 57.34675934 12.3125 63.125 C8.93787285 62.57776317 7.23015 62.0701 4.3125 60.125 C1.14167115 59.92020818 1.14167115 59.92020818 -2.3125 60.0625 C-4.43691768 60.11643113 -6.56249665 60.14548901 -8.6875 60.125 C-10.64870967 58.16379033 -9.962094 54.60355532 -10 51.9375 C-10.03738281 50.62394531 -10.07476562 49.31039062 -10.11328125 47.95703125 C-9.6875 44.125 -9.6875 44.125 -7.79296875 41.44921875 C-4.61425127 36.92124656 -4.61425127 36.92124656 -3.6875 25.125 C-14.9075 25.125 -26.1275 25.125 -37.6875 25.125 C-37.6875 16.125 -37.6875 16.125 -35.1171875 13.48828125 C-33.95400582 12.76835977 -32.76690715 12.08610001 -31.5625 11.4375 C-30.93811035 11.07011719 -30.3137207 10.70273437 -29.67041016 10.32421875 C-20.55652185 5.10716185 -10.65805713 -0.02845943 0 0 Z " fill="#415A7F" transform="translate(94.6875,25.875)"/>
<path d="M0 0 C5.68708105 2.38048307 9.78779535 7.18555859 14.12841797 11.42822266 C15.20606285 12.47276914 16.29432669 13.50647456 17.39306641 14.52880859 C26.4732268 22.98199904 26.4732268 22.98199904 27.72753906 27.78710938 C27.74920204 30.3132007 27.50546571 32.52983054 27 35 C26.90203125 36.0209375 26.8040625 37.041875 26.703125 38.09375 C26.55359375 38.8878125 26.4040625 39.681875 26.25 40.5 C26.11078125 41.3146875 25.9715625 42.129375 25.828125 42.96875 C25 45 25 45 22.921875 46.28125 C22.28765625 46.5184375 21.6534375 46.755625 21 47 C21.33 48.65 21.66 50.3 22 52 C15.47459547 51.05057625 10.37761605 44.85426077 6.34375 40.01171875 C0.36952397 31.21430664 -0.44618847 21.15340574 -0.1875 10.8125 C-0.17396484 9.76513672 -0.16042969 8.71777344 -0.14648438 7.63867188 C-0.1115968 5.09187876 -0.0625887 2.54623675 0 0 Z " fill="#3B547A" transform="translate(24,109)"/>
<path d="M0 0 C0.66 0 1.32 0 2 0 C3.01501998 1.86691174 4.01142079 3.74395344 5 5.625 C5.556875 6.66914062 6.11375 7.71328125 6.6875 8.7890625 C8.12228789 12.29916859 8.60614404 14.25964778 8 18 C6.50255765 20.17564269 5.10151963 21.91157161 3.3125 23.8125 C2.30086292 24.94451036 1.29323708 26.08011465 0.2890625 27.21875 C-0.51289551 28.12560547 -0.51289551 28.12560547 -1.33105469 29.05078125 C-4.30492079 32.52406196 -7.05310112 36.16813936 -9.8125 39.8125 C-10.3386792 40.50512939 -10.8648584 41.19775879 -11.40698242 41.91137695 C-11.91849854 42.58644287 -12.43001465 43.26150879 -12.95703125 43.95703125 C-13.70847412 44.94630615 -13.70847412 44.94630615 -14.47509766 45.95556641 C-15.5418234 47.38572352 -16.58673788 48.83229132 -17.61474609 50.29052734 C-18.39906006 51.39001709 -18.39906006 51.39001709 -19.19921875 52.51171875 C-19.66545654 53.18033936 -20.13169434 53.84895996 -20.61206055 54.5378418 C-21.29909058 55.26161011 -21.29909058 55.26161011 -22 56 C-22.99 56 -23.98 56 -25 56 C-25.17600241 51.54217496 -25.28142818 47.08525663 -25.375 42.625 C-25.42527344 41.37332031 -25.47554687 40.12164062 -25.52734375 38.83203125 C-25.65713669 30.56854756 -24.70507042 24.29849176 -19 18 C-13.35879504 14.89295812 -6.22261232 15.84443469 0 16 C0 10.72 0 5.44 0 0 Z " fill="#475F83" transform="translate(191,73)"/>
<path d="M0 0 C0.99 0 1.98 0 3 0 C3.77252241 1.37405173 4.5429232 2.74929634 5.3125 4.125 C5.74175781 4.89070313 6.17101562 5.65640625 6.61328125 6.4453125 C7.07089844 7.28835937 7.52851562 8.13140625 8 9 C8.52207031 9.85464844 9.04414062 10.70929688 9.58203125 11.58984375 C11.40363952 15.97073637 11.28678271 19.43940511 11.07421875 24.1171875 C11.04777786 24.97434357 11.02133698 25.83149963 10.99409485 26.71463013 C10.90676287 29.4354968 10.79746609 32.15496352 10.6875 34.875 C10.62419625 36.72651333 10.56233175 38.57807647 10.50195312 40.4296875 C10.35129179 44.95387142 10.18093548 49.47692978 10 54 C6.75702956 52.91900985 6.27802257 52.411412 4.328125 49.7890625 C3.83143311 49.12640381 3.33474121 48.46374512 2.82299805 47.78100586 C2.30390869 47.06952393 1.78481934 46.35804199 1.25 45.625 C0.71866455 44.90127197 0.1873291 44.17754395 -0.36010742 43.43188477 C-1.91747294 41.29545317 -3.45983076 39.14884659 -5 37 C-5.41523926 36.4323291 -5.83047852 35.8646582 -6.25830078 35.27978516 C-7.29883684 33.84842467 -8.3071241 32.39377176 -9.3125 30.9375 C-9.86550781 30.14214844 -10.41851563 29.34679687 -10.98828125 28.52734375 C-12.45289101 24.86864679 -11.98994477 22.81385098 -11 19 C-9.52506941 15.75799251 -7.79396757 12.69966108 -6 9.625 C-5.5359375 8.80644531 -5.071875 7.98789063 -4.59375 7.14453125 C-1.20583977 1.20583977 -1.20583977 1.20583977 0 0 Z " fill="#375077" transform="translate(42,59)"/>
<path d="M0 0 C12.92238687 3.52428733 12.92238687 3.52428733 19 6.25 C20.01030273 6.6979895 20.01030273 6.6979895 21.04101562 7.1550293 C26.98982421 9.86411446 32.88530862 12.8930762 38 17 C38 17.66 38 18.32 38 19 C39.32 19.66 40.64 20.32 42 21 C42 21.66 42 22.32 42 23 C28.14 23 14.28 23 0 23 C0 15.41 0 7.82 0 0 Z " fill="#41597E" transform="translate(131,25)"/>
<path d="M0 0 C0.66 2.64 1.32 5.28 2 8 C-5.28571429 12.57142857 -5.28571429 12.57142857 -10 12 C-10.33 12.66 -10.66 13.32 -11 14 C-11.66 14 -12.32 14 -13 14 C-13.33 13.01 -13.66 12.02 -14 11 C-14.66 12.32 -15.32 13.64 -16 15 C-17.32 14.34 -18.64 13.68 -20 13 C-20.33 13.33 -20.66 13.66 -21 14 C-21 14.66 -21 15.32 -21 16 C-22.98 16.33 -24.96 16.66 -27 17 C-27 16.01 -27 15.02 -27 14 C-27.99 14.495 -27.99 14.495 -29 15 C-28.67 15.99 -28.34 16.98 -28 18 C-28.969375 17.979375 -29.93875 17.95875 -30.9375 17.9375 C-33.87465895 17.64381501 -33.87465895 17.64381501 -35 19 C-36.66617115 19.04063832 -38.33388095 19.042721 -40 19 C-40 17.68 -40 16.36 -40 15 C-40.33 14.34 -40.66 13.68 -41 13 C-39 10 -39 10 -36.6796875 9.5234375 C-35.75414062 9.47445312 -34.82859375 9.42546875 -33.875 9.375 C-30.35258273 9.15745255 -26.92231412 8.86879143 -23.4375 8.3125 C-21.7359375 8.1578125 -21.7359375 8.1578125 -20 8 C-19.34 8.66 -18.68 9.32 -18 10 C-17.95875 9.38125 -17.9175 8.7625 -17.875 8.125 C-17.441875 7.073125 -17.441875 7.073125 -17 6 C-14.5 5 -14.5 5 -11 4 C-8.63116028 2.97456267 -6.29274543 1.89491879 -3.953125 0.8046875 C-2 0 -2 0 0 0 Z M-9 5 C-9.33 6.32 -9.66 7.64 -10 9 C-9.01 9.33 -8.02 9.66 -7 10 C-6.01 9.34 -5.02 8.68 -4 8 C-4.33 7.01 -4.66 6.02 -5 5 C-6.32 5 -7.64 5 -9 5 Z M-25 10 C-25.33 10.66 -25.66 11.32 -26 12 C-25.34 12 -24.68 12 -24 12 C-24.33 11.34 -24.66 10.68 -25 10 Z M-38 12 C-37.01 12.33 -36.02 12.66 -35 13 C-34.67 13.66 -34.34 14.32 -34 15 C-34 14.01 -34 13.02 -34 12 C-35.32 12 -36.64 12 -38 12 Z " fill="#8FA0B7" transform="translate(164,189)"/>
<path d="M0 0 C2.9817828 2.88924472 3.89762749 4.68319959 4.22070312 8.83886719 C4.16969314 12.19838466 3.98830192 15.52364282 3.75 18.875 C3.68425781 20.0403125 3.61851563 21.205625 3.55078125 22.40625 C3.38632148 25.27254876 3.20215384 28.13615398 3 31 C2.34 31 1.68 31 1 31 C-9.37649619 12.74848438 -9.37649619 12.74848438 -7 3 C-4.72923131 -0.20377334 -4.18194462 0 0 0 Z " fill="#586D8E" transform="translate(92,112)"/>
<path d="M0 0 C0.67289063 -0.01160156 1.34578125 -0.02320313 2.0390625 -0.03515625 C7.11032854 -0.00578598 10.54238041 1.18101536 15 3.375 C14 6.375 14 6.375 11.99609375 7.54296875 C7.97269171 8.660289 4.21902044 8.70446539 0.0625 8.6875 C-0.72318359 8.70361328 -1.50886719 8.71972656 -2.31835938 8.73632812 C-7.30726099 8.74050294 -10.62883615 8.03418314 -15 5.375 C-15 4.715 -15 4.055 -15 3.375 C-9.89081206 0.86032156 -5.73333352 -0.09885058 0 0 Z " fill="#4D6588" transform="translate(116,187.625)"/>
<path d="M0 0 C23.1 0 46.2 0 70 0 C71.08266248 3.24798743 71.03436186 5.35896827 70.87890625 8.76171875 C70.83056641 9.87998047 70.78222656 10.99824219 70.73242188 12.15039062 C70.67634766 13.31763672 70.62027344 14.48488281 70.5625 15.6875 C70.51029297 16.86634766 70.45808594 18.04519531 70.40429688 19.25976562 C70.27453806 22.17344094 70.13956868 25.08678078 70 28 C67.69 28 65.38 28 63 28 C63 27.34 63 26.68 63 26 C64.65 26 66.3 26 68 26 C68 17.75 68 9.5 68 1 C46.22 1 24.44 1 2 1 C2 7.6 2 14.2 2 21 C1.67 21 1.34 21 1 21 C0.67 14.07 0.34 7.14 0 0 Z " fill="#434344" transform="translate(115,55)"/>
<path d="M0 0 C4.75 0.875 4.75 0.875 7 2 C7 2.66 7 3.32 7 4 C7.804375 3.690625 7.804375 3.690625 8.625 3.375 C11.83267308 2.8685253 14.01317066 3.84599775 17 5 C16.67 6.65 16.34 8.3 16 10 C16.99 10.33 17.98 10.66 19 11 C19 9.35 19 7.7 19 6 C19.99 6 20.98 6 22 6 C21.95875 6.94875 21.9175 7.8975 21.875 8.875 C21.65026182 12.10244856 21.65026182 12.10244856 24 14 C18.11854503 13.55031129 12.56991247 13.01464919 7 11 C6.67 10.34 6.34 9.68 6 9 C5.01 9 4.02 9 3 9 C0.98848259 8.36893571 -1.01363702 7.70626239 -3 7 C-3 6.34 -3 5.68 -3 5 C-2.34 4.67 -1.68 4.34 -1 4 C-0.34786708 1.97536745 -0.34786708 1.97536745 0 0 Z M3 3 C3 4.65 3 6.3 3 8 C5.18490007 5.32357511 5.18490007 5.32357511 5 3 C4.34 3 3.68 3 3 3 Z M10 5 C9.67 6.32 9.34 7.64 9 9 C9.66 9 10.32 9 11 9 C10.67 7.68 10.34 6.36 10 5 Z " fill="#B0BBCB" transform="translate(71,192)"/>
<path d="M0 0 C0.66 0 1.32 0 2 0 C2.66 0.99 3.32 1.98 4 3 C4.33 2.34 4.66 1.68 5 1 C6.32 1.66 7.64 2.32 9 3 C9.33 2.34 9.66 1.68 10 1 C16.625 0.75 16.625 0.75 20 3 C19.67 4.98 19.34 6.96 19 9 C12.30798479 10.36882129 12.30798479 10.36882129 9 9 C7.25 7.4375 7.25 7.4375 6 6 C6 6.99 6 7.98 6 9 C2.7 8.67 -0.6 8.34 -4 8 C-2.87548273 5.0280615 -1.77706209 2.66559313 0 0 Z M15 3 C14.67 4.32 14.34 5.64 14 7 C14.99 7 15.98 7 17 7 C17 5.68 17 4.36 17 3 C16.34 3 15.68 3 15 3 Z " fill="#BEC8D5" transform="translate(101,199)"/>
<path d="M0 0 C0.66 2.64 1.32 5.28 2 8 C-5.28571429 12.57142857 -5.28571429 12.57142857 -10 12 C-10.33 12.66 -10.66 13.32 -11 14 C-11.66 14 -12.32 14 -13 14 C-13.48476454 7.69806094 -13.48476454 7.69806094 -11.4375 4.75 C-8.08141409 2.34050242 -4.23851378 0 0 0 Z M-9 5 C-9.33 6.32 -9.66 7.64 -10 9 C-9.01 9.33 -8.02 9.66 -7 10 C-6.01 9.34 -5.02 8.68 -4 8 C-4.33 7.01 -4.66 6.02 -5 5 C-6.32 5 -7.64 5 -9 5 Z " fill="#A9B7C8" transform="translate(164,189)"/>
<path d="M0 0 C0.99 0.66 1.98 1.32 3 2 C3.32946785 4.69627293 3.46803254 7.15820276 3.46875 9.859375 C3.47636353 10.64137268 3.48397705 11.42337036 3.49182129 12.22906494 C3.50263814 13.88672696 3.50546895 15.54445722 3.50097656 17.20214844 C3.50000878 19.72708757 3.54150952 22.24894122 3.5859375 24.7734375 C3.59114814 26.38541035 3.59383263 27.99739373 3.59375 29.609375 C3.6183429 30.73469635 3.6183429 30.73469635 3.64343262 31.88275146 C3.56865234 37.61930511 1.89896855 39.8553253 -2 44 C-2.7279495 46.91829858 -2.7279495 46.91829858 -2.6875 49.8125 C-2.76171875 52.70703125 -2.76171875 52.70703125 -3 55 C-3.99 55.495 -3.99 55.495 -5 56 C-5.1633585 53.96104395 -5.27900905 51.91823604 -5.375 49.875 C-5.44460937 48.73804688 -5.51421875 47.60109375 -5.5859375 46.4296875 C-4.94537887 42.68028431 -4.7273277 42.51097165 -2.00219727 40.28051758 C0.66023904 37.73030864 0.98005919 37.10741496 1.69702148 33.24536133 C1.70276437 31.85736575 1.67597407 30.46895333 1.62109375 29.08203125 C1.61497574 28.34297043 1.60885773 27.60390961 1.60255432 26.842453 C1.57576636 24.49770859 1.50669869 22.15633452 1.4375 19.8125 C1.41595728 18.22724749 1.39705109 16.64195682 1.38085938 15.05664062 C1.46356339 7.41483138 1.46356339 7.41483138 0 0 Z " fill="#D8DDE4" transform="translate(134,113)"/>
<path d="M0 0 C2.64103866 3.96155799 2.15246173 7.24817024 1.9765625 11.82421875 C1.95153656 12.68561966 1.92651062 13.54702057 1.90072632 14.43452454 C1.81855141 17.18591817 1.72195255 19.93659129 1.625 22.6875 C1.56675785 24.55270494 1.50945462 26.41793945 1.453125 28.28320312 C1.31297636 32.85588319 1.15988994 37.42796936 1 42 C0.01 41.67 -0.98 41.34 -2 41 C-1.76228882 39.76999268 -1.76228882 39.76999268 -1.51977539 38.51513672 C-0.93924616 34.58913395 -0.77367932 30.71761481 -0.68359375 26.7578125 C-0.66281265 25.98944061 -0.64203156 25.22106873 -0.62062073 24.42941284 C-0.55566531 21.99469233 -0.49649362 19.55987153 -0.4375 17.125 C-0.3942633 15.4661358 -0.35064743 13.80728144 -0.30664062 12.1484375 C-0.20003997 8.09905896 -0.0986233 4.04958037 0 0 Z " fill="#E1E5EA" transform="translate(51,71)"/>
<path d="M0 0 C4.75 0.875 4.75 0.875 7 2 C7 2.66 7 3.32 7 4 C7.66 4.33 8.32 4.66 9 5 C8.34 5 7.68 5 7 5 C6.67 5.66 6.34 6.32 6 7 C5.01 7.495 5.01 7.495 4 8 C4.33 6.35 4.66 4.7 5 3 C4.34 3 3.68 3 3 3 C3 4.65 3 6.3 3 8 C1.35 8 -0.3 8 -2 8 C-2.33 7.01 -2.66 6.02 -3 5 C-2.34 4.67 -1.68 4.34 -1 4 C-0.34786708 1.97536745 -0.34786708 1.97536745 0 0 Z " fill="#8598B0" transform="translate(71,192)"/>
<path d="M0 0 C0.33 2.31 0.66 4.62 1 7 C0.34 6.67 -0.32 6.34 -1 6 C-1.66 7.32 -2.32 8.64 -3 10 C-5.99324263 8.9024777 -6.84610901 8.32317108 -8.25 5.375 C-8.4975 4.59125 -8.745 3.8075 -9 3 C-7.02 3.99 -7.02 3.99 -5 5 C-4.814375 4.0409375 -4.814375 4.0409375 -4.625 3.0625 C-4.41875 2.381875 -4.2125 1.70125 -4 1 C-2 0 -2 0 0 0 Z " fill="#8C9FB6" transform="translate(151,194)"/>
<path d="M0 0 C1.65 0.33 3.3 0.66 5 1 C4.125 6.75 4.125 6.75 3 9 C0.5625 8.625 0.5625 8.625 -2 8 C-2.33 7.34 -2.66 6.68 -3 6 C-3.99 6 -4.98 6 -6 6 C-5.34 5.67 -4.68 5.34 -4 5 C-3.67 4.34 -3.34 3.68 -3 3 C-2.01 2.67 -1.02 2.34 0 2 C0 1.34 0 0.68 0 0 Z M1 2 C0.67 3.32 0.34 4.64 0 6 C0.66 6 1.32 6 2 6 C1.67 4.68 1.34 3.36 1 2 Z " fill="#ACB9C9" transform="translate(80,195)"/>
<path d="M0 0 C1.65 0.33 3.3 0.66 5 1 C4.67 1.66 4.34 2.32 4 3 C4.32550502 4.66821323 4.65846063 6.33499557 5 8 C4 9 4 9 1.4375 9.0625 C0.633125 9.041875 -0.17125 9.02125 -1 9 C-1 7.68 -1 6.36 -1 5 C-1.33 4.34 -1.66 3.68 -2 3 C-1.34 2.01 -0.68 1.02 0 0 Z " fill="#A6B3C4" transform="translate(125,199)"/>
<path d="M0 0 C0.515625 0.350625 1.03125 0.70125 1.5625 1.0625 C4.92989303 2.35765117 7.48697845 1.57485807 11 1 C11.99 1.33 12.98 1.66 14 2 C10.14243493 4.15305957 7.44870215 5.39253254 3 5 C2.67 5.66 2.34 6.32 2 7 C1.34 7 0.68 7 0 7 C0 4.69 0 2.38 0 0 Z " fill="#D7DDE5" transform="translate(151,196)"/>
<path d="M0 0 C1.67542976 0.28604898 3.34385343 0.61781233 5 1 C5.625 2.875 5.625 2.875 6 5 C4 7 4 7 1.375 7.125 C0.59125 7.08375 -0.1925 7.0425 -1 7 C-1.04254356 5.00045254 -1.04080783 2.99958364 -1 1 C-0.67 0.67 -0.34 0.34 0 0 Z M2 2 C1.67 3.32 1.34 4.64 1 6 C1.99 6 2.98 6 4 6 C4 4.68 4 3.36 4 2 C3.34 2 2.68 2 2 2 Z " fill="#6882A0" transform="translate(114,200)"/>
<path d="M0 0 C2.125 0.9375 2.125 0.9375 4 2 C4 3.98 4 5.96 4 8 C2.02 8.33 0.04 8.66 -2 9 C-1.67 7.68 -1.34 6.36 -1 5 C-0.34 5 0.32 5 1 5 C0.67 4.34 0.34 3.68 0 3 C-0.99 3.495 -0.99 3.495 -2 4 C-2 3.01 -2 2.02 -2 1 C-1.34 0.67 -0.68 0.34 0 0 Z " fill="#B2BECD" transform="translate(139,197)"/>
<path d="M0 0 C1.32 0.66 2.64 1.32 4 2 C4.66 1.34 5.32 0.68 6 0 C6 2.31 6 4.62 6 7 C3 6 3 6 1 4 C0.34 4.99 -0.32 5.98 -1 7 C-0.67 4.69 -0.34 2.38 0 0 Z " fill="#627A9A" transform="translate(106,200)"/>
<path d="M0 0 C-0.33 1.32 -0.66 2.64 -1 4 C-2.32 4 -3.64 4 -5 4 C-5 5.32 -5 6.64 -5 8 C-5.99 7.67 -6.98 7.34 -8 7 C-7.8125 4.625 -7.8125 4.625 -7 2 C-4.54236535 0.67665827 -2.79402354 0 0 0 Z " fill="#758AA7" transform="translate(160,191)"/>
<path d="M0 0 C0.99 0.33 1.98 0.66 3 1 C2.814375 1.78375 2.62875 2.5675 2.4375 3.375 C1.74037734 5.97089775 1.74037734 5.97089775 3 8 C1.68 8 0.36 8 -1 8 C-0.67 5.36 -0.34 2.72 0 0 Z " fill="#8FA1B8" transform="translate(85,196)"/>
<path d="M0 0 C0 0.66 0 1.32 0 2 C-1.98 2.99 -1.98 2.99 -4 4 C-3.67 5.65 -3.34 7.3 -3 9 C-4.32 8.67 -5.64 8.34 -7 8 C-4.73913043 0 -4.73913043 0 0 0 Z " fill="#E4E7EC" transform="translate(49,152)"/>
<path d="M0 0 C1.2077558 3.62326739 0.54311128 4.64146369 -1 8 C-2.65 7.67 -4.3 7.34 -6 7 C-5.38125 6.5875 -4.7625 6.175 -4.125 5.75 C-1.93231719 3.94426121 -1.07211583 2.5909466 0 0 Z " fill="#D7DDE5" transform="translate(84,196)"/>
</svg>
