<?xml version="1.0" encoding="UTF-8"?>
<svg version="1.1" xmlns="http://www.w3.org/2000/svg" width="193" height="261">
<path d="M0 0 C59.73 0 119.46 0 181 0 C181 25.08 181 50.16 181 76 C165.49 75.67 149.98 75.34 134 75 C134.45375 79.269375 134.9075 83.53875 135.375 87.9375 C135.51341309 89.26515381 135.65182617 90.59280762 135.79443359 91.96069336 C136.42689792 97.77456717 137.21470416 103.40761846 138.58105469 109.09350586 C139.59302226 113.69866598 139.66811603 118.34406639 139 123 C136.36245133 126.35688013 134.55708715 126.86317158 130.4375 127.875 C126.0384923 129.31467525 125.24767981 131.04718378 123 135 C122.278125 135.886875 121.55625 136.77375 120.8125 137.6875 C118.8297297 139.95025024 118.8297297 139.95025024 118 143 C118.77452011 142.98525131 119.54904022 142.97050262 120.34703064 142.95530701 C127.63112863 142.81749695 134.91529095 142.68452208 142.19957638 142.5570364 C145.94487413 142.49131602 149.69011795 142.42369822 153.43530273 142.35180664 C157.04674563 142.28255112 160.65824509 142.218198 164.26983833 142.15730476 C165.6506323 142.13315026 167.03139605 142.10720187 168.41212273 142.07946587 C170.33968352 142.04104569 172.26737736 142.00948247 174.19506836 141.97827148 C175.29427109 141.95828598 176.39347382 141.93830048 177.52598572 141.91770935 C180 142 180 142 181 143 C182.66487675 159.64876754 173.05318573 179.26429339 163 192 C162.2575 192.969375 161.515 193.93875 160.75 194.9375 C157.70103093 198.53092784 157.70103093 198.53092784 156 200 C155.34 200 154.68 200 154 200 C154 200.66 154 201.32 154 202 C138.21215934 214.57052233 119.14811975 220.88070429 99.65625 225.19140625 C96.76438749 226.07172322 94.52190755 227.35070901 92 229 C91.52433594 228.55398437 91.04867187 228.10796875 90.55859375 227.6484375 C86.94656383 225.32129761 83.21279724 224.60594238 79.0625 223.625 C58.53652206 218.44937301 37.817053 209.49875005 24.25390625 192.53515625 C22.88542099 190.79367388 22.88542099 190.79367388 20.5625 188.6875 C10.23860981 177.86000541 0.91953146 161.59124152 0.8125 146.3125 C0.9053125 144.6728125 0.9053125 144.6728125 1 143 C4.13731287 141.43134357 7.48644197 141.85807155 10.9296875 141.8671875 C11.71642853 141.86623077 12.50316956 141.86527405 13.31375122 141.86428833 C14.97983887 141.86360726 16.64592916 141.86545648 18.31201172 141.86962891 C20.85780846 141.87496397 23.40342762 141.86968886 25.94921875 141.86328125 C27.56770872 141.86394232 29.18619858 141.86522409 30.8046875 141.8671875 C31.94549271 141.86415115 31.94549271 141.86415115 33.10934448 141.86105347 C36.54175251 141.87620705 39.71996987 141.9159861 43 143 C42.67 141.68 42.34 140.36 42 139 C43.64671412 139.30782496 45.29235576 139.62139234 46.9375 139.9375 C47.85402344 140.11152344 48.77054688 140.28554687 49.71484375 140.46484375 C52 141 52 141 53 142 C55.52596259 142.23653523 58.03107207 142.42173692 60.5625 142.5625 C61.27341797 142.60568359 61.98433594 142.64886719 62.71679688 142.69335938 C64.47761912 142.79971777 66.2387832 142.90038846 68 143 C68 142.34 68 141.68 68 141 C67.38769531 140.74605469 66.77539062 140.49210938 66.14453125 140.23046875 C62.52831575 138.155591 61.25273071 134.87016807 60 131 C60 127.15715109 60.21573063 125.02091923 62.56640625 121.9609375 C65.73847865 119.40494979 69.07929882 118.44418246 72.9375 117.375 C74.34296251 116.96791828 75.74792392 116.55910197 77.15234375 116.1484375 C77.81218262 115.95733398 78.47202148 115.76623047 79.15185547 115.56933594 C81.49358848 114.84794606 83.7471065 113.96111699 86 113 C85.28436734 110.9837767 85.28436734 110.9837767 84 109 C81.94999129 108.19471111 81.94999129 108.19471111 80 108 C80 107.34 80 106.68 80 106 C75.80491562 103.75263337 72.79167039 103 68 103 C65.50494038 100.50494038 65.64051624 99.32671112 65.375 95.875 C65.26285156 94.50988281 65.26285156 94.50988281 65.1484375 93.1171875 C65.09945312 92.41851562 65.05046875 91.71984375 65 91 C64.26394531 91.433125 63.52789062 91.86625 62.76953125 92.3125 C61.79371094 92.869375 60.81789062 93.42625 59.8125 94 C58.84957031 94.556875 57.88664062 95.11375 56.89453125 95.6875 C53.95111257 97.02216758 52.18119943 97.27915461 49 97 C48.34 98.32 47.68 99.64 47 101 C46.01 101 45.02 101 44 101 C43.67 102.65 43.34 104.3 43 106 C42.01 106 41.02 106 40 106 C39.34 103.36 38.68 100.72 38 98 C36.86111328 98.41572266 36.86111328 98.41572266 35.69921875 98.83984375 C34.20841797 99.38318359 34.20841797 99.38318359 32.6875 99.9375 C31.70136719 100.29714844 30.71523438 100.65679687 29.69921875 101.02734375 C27.8079437 101.70885965 25.90715671 102.3642811 24 103 C24 100.03 24 97.06 24 94 C25.485 93.505 25.485 93.505 27 93 C26.67 90.69 26.34 88.38 26 86 C28.475 85.505 28.475 85.505 31 85 C28.28395285 82.12579877 28.28395285 82.12579877 25 80 C25 79.34 25 78.68 25 78 C29.65780146 75.67109927 35.94668914 76.45322946 41 77 C43.55072688 78.38831075 44.94764237 79.89363296 47 82 C50.42668345 82 52.35790613 80.0256053 55 78 C55.66 78 56.32 78 57 78 C56.67 77.34 56.34 76.68 56 76 C55.32792511 76.00222061 54.65585022 76.00444122 53.96340942 76.00672913 C46.98846975 76.02879822 40.01353993 76.04391343 33.03857422 76.05493164 C30.43310137 76.0599703 27.82763137 76.0668013 25.22216797 76.07543945 C21.48404236 76.08752544 17.74595403 76.09323288 14.0078125 76.09765625 C12.83695099 76.10281754 11.66608948 76.10797882 10.45974731 76.11329651 C9.37877777 76.11337204 8.29780823 76.11344757 7.18408203 76.11352539 C5.75178757 76.11685631 5.75178757 76.11685631 4.29055786 76.12025452 C2 76 2 76 0 75 C0 50.25 0 25.5 0 0 Z M119 76 C117.64560332 78.70879335 117.93498549 81.00933268 118 84 C117.01 84 116.02 84 115 84 C115.0825 84.763125 115.165 85.52625 115.25 86.3125 C115 89 115 89 113 90.8125 C112.34 91.204375 111.68 91.59625 111 92 C111 90.35 111 88.7 111 87 C107.81072879 88.62647138 107.81072879 88.62647138 107.5 91.25 C108.50027704 96.75152373 112.78801929 99.85039363 116.9375 103.1875 C121.80777327 107.30283488 124.19048543 112.38097086 127 118 C127.66 118.99 128.32 119.98 129 121 C130.485 120.505 130.485 120.505 132 120 C132.28248411 111.03112955 131.18132836 102.36392688 130 93.5 C129.71316329 91.30541043 129.42809986 89.11060043 129.14404297 86.91564941 C128.88818851 84.94531472 128.62781065 82.97556897 128.3671875 81.00585938 C128 78 128 78 128 76 C123.46859347 75.06619039 123.46859347 75.06619039 119 76 Z M92 131 C91.34 131.66 90.68 132.32 90 133 C88.01643517 133.71408334 86.01684563 134.38617742 84 135 C82.91056662 138.47262619 82.91056662 138.47262619 83.9375 141.8125 C87.23218112 143.70943762 90.24238464 143.18480076 94 143 C93.67 139.04 93.34 135.08 93 131 C92.67 131 92.34 131 92 131 Z " fill="#161818" transform="translate(4,0)"/>
<path d="M0 0 C59.73 0 119.46 0 181 0 C181 25.08 181 50.16 181 76 C165.49 75.67 149.98 75.34 134 75 C134.99 83.91 134.99 83.91 136 93 C136 95.31 136 97.62 136 100 C134.47901999 97.24182222 133.69371682 94.99541019 133.3671875 91.8671875 C133.28307617 91.06998291 133.19896484 90.27277832 133.11230469 89.45141602 C133.03399414 88.60119873 132.95568359 87.75098145 132.875 86.875 C132.7915332 85.99062256 132.70806641 85.10624512 132.62207031 84.19506836 C129.31045152 46.2973084 129.31045152 46.2973084 138.34765625 34.1953125 C140 33 140 33 142.0703125 33.0625 C144 34 144 34 145.1171875 35.75 C146.89649896 41.03290414 146.99031395 44.27293113 145.50390625 49.6015625 C144.55456182 54.12014763 144.89459671 58.53587134 146 63 C148.27994388 66.08100524 149.71600397 67.54886626 153.3125 68.8125 C153.869375 68.874375 154.42625 68.93625 155 69 C154.82726562 68.01773438 154.65453125 67.03546875 154.4765625 66.0234375 C153.88027841 61.83259281 154.06979847 57.83394203 154.375 53.625 C154.44618042 52.50073608 154.44618042 52.50073608 154.51879883 51.35375977 C154.77312322 47.52057925 155.13655029 43.74104439 155.6875 39.9375 C156.05671409 35.28540242 155.5636169 32.37812732 154 28 C148.94114269 26.31371423 143.63606185 25.74259401 138.70703125 28.09375 C132.20364861 32.6815021 129.22815281 37.7953816 127.75 45.5 C126.39873333 55.58708717 126.83084261 65.84665286 127 76 C124.36 76 121.72 76 119 76 C118.67 78.64 118.34 81.28 118 84 C117.01 84 116.02 84 115 84 C115.226875 84.763125 115.45375 85.52625 115.6875 86.3125 C115.790625 87.199375 115.89375 88.08625 116 89 C114.5625 90.8125 114.5625 90.8125 113 92 C112.34 91.67 111.68 91.34 111 91 C111.66 90.34 112.32 89.68 113 89 C113.39764263 87.01178687 113.73775349 85.01055661 114 83 C114.99 83 115.98 83 117 83 C116.979375 82.05125 116.95875 81.1025 116.9375 80.125 C117 77 117 77 118 75 C118.66 75 119.32 75 120 75 C119.835 74.319375 119.67 73.63875 119.5 72.9375 C118.81917244 68.93763809 118.14208113 64.71583773 120 61 C119.34773438 61.20496094 118.69546875 61.40992188 118.0234375 61.62109375 C117.14945312 61.89050781 116.27546875 62.15992188 115.375 62.4375 C114.51648438 62.70433594 113.65796875 62.97117188 112.7734375 63.24609375 C98.8245161 67.03784281 83.0866149 66.28081861 70.3125 59.1875 C68 57 68 57 67.0625 53.5 C66.39083901 50.04737614 66.39083901 50.04737614 64.40234375 48.80078125 C62.60234939 47.86567125 60.8012087 46.93276879 59 46 C57.5625 43.75 57.5625 43.75 57 42 C56.34 42 55.68 42 55 42 C54.69707031 41.41992188 54.39414062 40.83984375 54.08203125 40.2421875 C52.77075987 37.79717072 51.39280163 35.39936415 50 33 C49.67386719 32.36191406 49.34773438 31.72382813 49.01171875 31.06640625 C47.90812754 29.09176301 47.90812754 29.09176301 45 27 C40.62212817 26.50409004 36.38539424 26.65327776 32 27 C32.495 28.485 32.495 28.485 33 30 C32.360625 30.103125 31.72125 30.20625 31.0625 30.3125 C30.381875 30.539375 29.70125 30.76625 29 31 C28.67 31.99 28.34 32.98 28 34 C28.66 34 29.32 34 30 34 C30.625 35.875 30.625 35.875 31 38 C30.34 38.66 29.68 39.32 29 40 C28.35232207 42.57061311 28.35232207 42.57061311 28 45 C31.465 44.505 31.465 44.505 35 44 C34.125 48.75 34.125 48.75 33 51 C34.216875 50.649375 35.43375 50.29875 36.6875 49.9375 C40.12086896 49.06543648 42.55349859 48.92296831 46 50 C46.495 52.97 46.495 52.97 47 56 C47.66 56 48.32 56 49 56 C49 56.99 49 57.98 49 59 C49.61875 59.0825 50.2375 59.165 50.875 59.25 C53 60 53 60 54.25 62.0625 C54.4975 62.701875 54.745 63.34125 55 64 C55.99 64 56.98 64 58 64 C58 64.66 58 65.32 58 66 C57.34 66 56.68 66 56 66 C56 66.66 56 67.32 56 68 C55.01 68.66 54.02 69.32 53 70 C54.65 70.66 56.3 71.32 58 72 C58 72.99 58 73.98 58 75 C52.19137669 76.25038129 46.45681083 76.14413637 40.546875 76.1328125 C39.45030579 76.13376923 38.35373657 76.13472595 37.22393799 76.13571167 C34.91426536 76.13639039 32.6045908 76.13455761 30.29492188 76.13037109 C26.74865482 76.12499796 23.20251324 76.13033705 19.65625 76.13671875 C17.41145805 76.13605832 15.16666618 76.13477788 12.921875 76.1328125 C11.85733093 76.13483673 10.79278687 76.13686096 9.69598389 76.13894653 C8.7144635 76.13579437 7.73294312 76.13264221 6.72167969 76.12939453 C5.85597351 76.12859894 4.99026733 76.12780334 4.09832764 76.12698364 C2 76 2 76 0 75 C0 50.25 0 25.5 0 0 Z " fill="#186F1C" transform="translate(4,0)"/>
<path d="M0 0 C0.495 0.99 0.495 0.99 1 2 C0.67 2.99 0.34 3.98 0 5 C0.77452011 4.98525131 1.54904022 4.97050262 2.34703064 4.95530701 C9.63112863 4.81749695 16.91529095 4.68452208 24.19957638 4.5570364 C27.94487413 4.49131602 31.69011795 4.42369822 35.43530273 4.35180664 C39.04674563 4.28255112 42.65824509 4.218198 46.26983833 4.15730476 C47.6506323 4.13315026 49.03139605 4.10720187 50.41212273 4.07946587 C52.33968352 4.04104569 54.26737736 4.00948247 56.19506836 3.97827148 C57.29427109 3.95828598 58.39347382 3.93830048 59.52598572 3.91770935 C62 4 62 4 63 5 C64.66487675 21.64876754 55.05318573 41.26429339 45 54 C43.88625 55.4540625 43.88625 55.4540625 42.75 56.9375 C39.70103093 60.53092784 39.70103093 60.53092784 38 62 C37.34 62 36.68 62 36 62 C36 62.66 36 63.32 36 64 C20.21215934 76.57052233 1.14811975 82.88070429 -18.34375 87.19140625 C-21.23561251 88.07172322 -23.47809245 89.35070901 -26 91 C-26.47566406 90.55398437 -26.95132813 90.10796875 -27.44140625 89.6484375 C-31.05343617 87.32129761 -34.78720276 86.60594238 -38.9375 85.625 C-59.46347794 80.44937301 -80.182947 71.49875005 -93.74609375 54.53515625 C-95.11457901 52.79367388 -95.11457901 52.79367388 -97.4375 50.6875 C-107.76139019 39.86000541 -117.08046854 23.59124152 -117.1875 8.3125 C-117.125625 7.219375 -117.06375 6.12625 -117 5 C-113.86268713 3.43134357 -110.51355803 3.85807155 -107.0703125 3.8671875 C-106.28357147 3.86623077 -105.49683044 3.86527405 -104.68624878 3.86428833 C-103.02016113 3.86360726 -101.35407084 3.86545648 -99.68798828 3.86962891 C-97.14219154 3.87496397 -94.59657238 3.86968886 -92.05078125 3.86328125 C-90.43229128 3.86394232 -88.81380142 3.86522409 -87.1953125 3.8671875 C-86.05450729 3.86415115 -86.05450729 3.86415115 -84.89065552 3.86105347 C-81.45824749 3.87620705 -78.28003013 3.9159861 -75 5 C-75.495 3.02 -75.495 3.02 -76 1 C-73.36 1.33 -70.72 1.66 -68 2 C-69.98 2.99 -69.98 2.99 -72 4 C-71.505 5.485 -71.505 5.485 -71 7 C-70.87218214 9.67394964 -70.95608129 12.32095857 -71 15 C-72.98 15.33 -74.96 15.66 -77 16 C-77.433125 17.3303125 -77.433125 17.3303125 -77.875 18.6875 C-78.82693759 21.49042733 -79.90062169 24.25155423 -81 27 C-77.37 27 -73.74 27 -70 27 C-69.67 26.34 -69.34 25.68 -69 25 C-68.34 25 -67.68 25 -67 25 C-66.66223316 26.7491497 -66.32996329 28.49936145 -66 30.25 C-65.814375 31.22453125 -65.62875 32.1990625 -65.4375 33.203125 C-65 36 -65 36 -65 40 C-64.01 40 -63.02 40 -62 40 C-62 38.02 -62 36.04 -62 34 C-61.20980469 33.7834375 -60.41960938 33.566875 -59.60546875 33.34375 C-56.78356157 32.23970128 -56.78356157 32.23970128 -55.92578125 29.46875 C-55.72339844 28.4890625 -55.52101562 27.509375 -55.3125 26.5 C-54.16917923 21.16917923 -54.16917923 21.16917923 -52 19 C-51.38125 19.825 -50.7625 20.65 -50.125 21.5 C-49.42375 22.325 -48.7225 23.15 -48 24 C-47.34 24 -46.68 24 -46 24 C-46 23.34 -46 22.68 -46 22 C-44.35 21.67 -42.7 21.34 -41 21 C-41 20.01 -41 19.02 -41 18 C-37.66666667 15 -37.66666667 15 -35 15 C-34.67 13.02 -34.34 11.04 -34 9 C-32.68 9 -31.36 9 -30 9 C-30.99 7.02 -30.99 7.02 -32 5 C-29.36 5 -26.72 5 -24 5 C-23.67 4.34 -23.34 3.68 -23 3 C-22.649375 4.03125 -22.29875 5.0625 -21.9375 6.125 C-20.28549076 10.0866144 -17.83210853 12.12995727 -14.42578125 14.640625 C-13.72001953 15.31351563 -13.72001953 15.31351563 -13 16 C-13 16.99 -13 17.98 -13 19 C-11.515 19.495 -11.515 19.495 -10 20 C-10.14364786 25.60226642 -12.76640495 28.85297291 -16.015625 33.14453125 C-18.33732401 35.31541123 -19.882131 35.67208619 -23 36 C-23.598125 35.195625 -24.19625 34.39125 -24.8125 33.5625 C-26.80947276 30.77672016 -26.80947276 30.77672016 -30 30 C-30 30.99 -30 31.98 -30 33 C-32.64 33.33 -35.28 33.66 -38 34 C-37.484375 34.556875 -36.96875 35.11375 -36.4375 35.6875 C-35 38 -35 38 -34.9375 40.4375 C-36 43 -36 43 -39.0625 45.4375 C-42.34560781 47.71967801 -42.34560781 47.71967801 -42.375 51.3125 C-42.189375 52.6428125 -42.189375 52.6428125 -42 54 C-41.67 53.67 -41.34 53.34 -41 53 C-38.64686445 52.92728259 -36.29166332 52.91629132 -33.9375 52.9375 C-32.00197266 52.95103516 -32.00197266 52.95103516 -30.02734375 52.96484375 C-29.02832031 52.97644531 -28.02929688 52.98804688 -27 53 C-26.87882812 53.90363281 -26.75765625 54.80726563 -26.6328125 55.73828125 C-26.46523437 56.91777344 -26.29765625 58.09726563 -26.125 59.3125 C-25.96257812 60.48425781 -25.80015625 61.65601563 -25.6328125 62.86328125 C-25.17699379 66.14530895 -25.17699379 66.14530895 -23 69 C-22.74605469 68.36191406 -22.49210937 67.72382813 -22.23046875 67.06640625 C-21.88628906 66.24011719 -21.54210937 65.41382813 -21.1875 64.5625 C-20.85105469 63.73878906 -20.51460938 62.91507813 -20.16796875 62.06640625 C-19 60 -19 60 -16 59 C-14.93035757 56.60764271 -14.93035757 56.60764271 -14.125 53.75 C-12.48158841 48.88929417 -11.07692919 46.1113407 -7 43 C-6.34 43 -5.68 43 -5 43 C-5 41.35 -5 39.7 -5 38 C-4.401875 37.835 -3.80375 37.67 -3.1875 37.5 C0.18527798 35.18723796 0.8331548 31.80108663 2 28 C2.99 28.66 3.98 29.32 5 30 C5.680625 28.2984375 5.680625 28.2984375 6.375 26.5625 C8 23 8 23 10 22 C10.46523063 20.10466658 10.46523063 20.10466658 10.625 17.9375 C10.810625 15.9884375 10.810625 15.9884375 11 14 C10.319375 13.79375 9.63875 13.5875 8.9375 13.375 C5.03311278 11.54741449 1.83984835 9.26382571 -1 6 C-1.5 3.1875 -1.5 3.1875 -1 1 C-0.67 0.67 -0.34 0.34 0 0 Z " fill="#1A711E" transform="translate(122,138)"/>
<path d="M0 0 C0 3.3 0 6.6 0 10 C-0.66 10 -1.32 10 -2 10 C-2 7.69 -2 5.38 -2 3 C-5.465 4.485 -5.465 4.485 -9 6 C-8.2575 6.5775 -7.515 7.155 -6.75 7.75 C-4.31863504 9.73929861 -2.06264597 11.63177685 0 14 C0 14.99 0 15.98 0 17 C-0.66 17 -1.32 17 -2 17 C-2 22.61 -2 28.22 -2 34 C-3.32 34.66 -4.64 35.32 -6 36 C-9.17683556 38.83339388 -11.75013339 41.93483492 -14.3125 45.3125 C-28.72897484 64.04770329 -50.84539456 75.29767841 -74 79 C-77.39863747 79.27560548 -80.77867375 79.32727909 -84.1875 79.3359375 C-85.12948242 79.3425943 -86.07146484 79.3492511 -87.04199219 79.35610962 C-89.02520824 79.36616911 -91.00845768 79.37092874 -92.99169922 79.37060547 C-95.96511423 79.37494904 -98.93700569 79.41125944 -101.91015625 79.44921875 C-130.9466733 79.61927753 -155.28471225 70.62400743 -176.484375 50.60546875 C-184 42.82142857 -184 42.82142857 -184 40 C-185.98 39.34 -187.96 38.68 -190 38 C-189.96519531 36.72382813 -189.93039063 35.44765625 -189.89453125 34.1328125 C-189.86639769 32.46355479 -189.83909707 30.7942829 -189.8125 29.125 C-189.78736328 28.28324219 -189.76222656 27.44148438 -189.73632812 26.57421875 C-189.72182617 25.36572266 -189.72182617 25.36572266 -189.70703125 24.1328125 C-189.6913208 23.38918457 -189.67561035 22.64555664 -189.65942383 21.87939453 C-189.77181396 21.25919434 -189.8842041 20.63899414 -190 20 C-190.99 19.34 -191.98 18.68 -193 18 C-192.67 13.05 -192.34 8.1 -192 3 C-189 2 -189 2 -186.9921875 2.7421875 C-186.29351562 3.11601562 -185.59484375 3.48984375 -184.875 3.875 C-184.17117187 4.24367187 -183.46734375 4.61234375 -182.7421875 4.9921875 C-181 6 -181 6 -180 7 C-179.76636119 8.84891946 -179.58696365 10.70488031 -179.4375 12.5625 C-179.35371094 13.57441406 -179.26992187 14.58632812 -179.18359375 15.62890625 C-179.12300781 16.41136719 -179.06242188 17.19382813 -179 18 C-178.37351563 18.19335938 -177.74703125 18.38671875 -177.1015625 18.5859375 C-176.28429687 18.84632813 -175.46703125 19.10671875 -174.625 19.375 C-173.81289062 19.63023437 -173.00078125 19.88546875 -172.1640625 20.1484375 C-170 21 -170 21 -168 23 C-167.8046875 25.6015625 -167.8046875 25.6015625 -167.875 28.625 C-167.89304688 29.62789062 -167.91109375 30.63078125 -167.9296875 31.6640625 C-167.95289063 32.43492187 -167.97609375 33.20578125 -168 34 C-167.40703125 34.26683594 -166.8140625 34.53367188 -166.203125 34.80859375 C-163.96181375 36.02065037 -162.55421814 37.27935917 -160.75 39.0625 C-144.80902337 53.15397105 -123.80667093 58.81704628 -103 60 C-101.37771484 60.10634766 -101.37771484 60.10634766 -99.72265625 60.21484375 C-72.94198782 61.07651262 -48.06844219 52.58345783 -28.23046875 34.7109375 C-25.70520326 31.64170063 -25.2838022 29.91016364 -25 26 C-24.814375 24.72125 -24.62875 23.4425 -24.4375 22.125 C-24.293125 21.09375 -24.14875 20.0625 -24 19 C-20.04 18.01 -16.08 17.02 -12 16 C-12.061875 14.246875 -12.12375 12.49375 -12.1875 10.6875 C-12.37107406 5.48623497 -12.37107406 5.48623497 -10.640625 3.21875 C-7.13008709 0.61092184 -4.35904732 0 0 0 Z M-190 11 C-189.67 12.32 -189.34 13.64 -189 15 C-188.67 13.68 -188.34 12.36 -188 11 C-188.66 11 -189.32 11 -190 11 Z M-14 18.3125 C-15.0725 18.55613281 -16.145 18.79976562 -17.25 19.05078125 C-20.29908164 19.79263492 -20.29908164 19.79263492 -22 23 C-21.0925 23.5775 -20.185 24.155 -19.25 24.75 C-16.46550991 26.67772391 -14.33616862 28.58327384 -12 31 C-9.21885944 33.33391203 -9.21885944 33.33391203 -6.3125 32.625 C-5.549375 32.41875 -4.78625 32.2125 -4 32 C-3.94593878 30.06280622 -3.90717975 28.12518079 -3.875 26.1875 C-3.85179687 25.10855469 -3.82859375 24.02960938 -3.8046875 22.91796875 C-3.76976283 19.80597132 -3.76976283 19.80597132 -6 17 C-8.78804878 17 -11.28680058 17.67659389 -14 18.3125 Z M-187 19 C-188.00051595 25.00309571 -188.96006223 31.11981331 -187 37 C-182.30234629 35.71882171 -179.78197339 33.00472107 -176.55078125 29.55859375 C-175 28 -175 28 -173 27 C-173.89056128 23.92351557 -174.34807118 22.37253076 -177.1875 20.75 C-180.44224144 19.88206895 -183.65668436 19.39333125 -187 19 Z M-21 29 C-20 31 -20 31 -20 31 Z M-176.82421875 31.53125 C-177.74654297 32.50578125 -177.74654297 32.50578125 -178.6875 33.5 C-179.31011719 34.1496875 -179.93273437 34.799375 -180.57421875 35.46875 C-181.04472656 35.9740625 -181.51523438 36.479375 -182 37 C-181.01 38.485 -181.01 38.485 -180 40 C-179.8453125 41.1446875 -179.8453125 41.1446875 -179.6875 42.3125 C-178.10632873 48.49344223 -172.30264557 52.68581795 -167.4375 56.4375 C-166.82326172 56.91268066 -166.20902344 57.38786133 -165.57617188 57.87744141 C-153.23457154 67.26100595 -138.75738674 74.87828772 -123 76 C-120.7778822 75.59961601 -120.7778822 75.59961601 -119 75 C-121.20238678 72.50673195 -122.95199811 71.4553124 -126.125 70.5 C-126.91519531 70.2525 -127.70539063 70.005 -128.51953125 69.75 C-129.33808594 69.5025 -130.15664062 69.255 -131 69 C-139.45838117 66.40987371 -139.45838117 66.40987371 -142.3125 64.25 C-143.95754801 62.72649729 -143.95754801 62.72649729 -146.25 63.3125 C-147.11625 63.6528125 -147.11625 63.6528125 -148 64 C-148.33 63.01 -148.66 62.02 -149 61 C-150.64232772 60.27544365 -152.31624835 59.62225605 -154 59 C-157.77470373 57.11670696 -160.60115537 55.59826694 -163 52 C-163.99 52.33 -164.98 52.66 -166 53 C-165 50 -165 50 -162 48 C-162 47.34 -162 46.68 -162 46 C-161.01 46 -160.02 46 -159 46 C-158.67 47.65 -158.34 49.3 -158 51 C-158.66 51.33 -159.32 51.66 -160 52 C-160 52.66 -160 53.32 -160 54 C-156.99740483 54.33218192 -156.99740483 54.33218192 -155.3125 52.5 C-154.879375 52.005 -154.44625 51.51 -154 51 C-153.53851563 51.31453125 -153.07703125 51.6290625 -152.6015625 51.953125 C-143.91509251 57.70561534 -143.91509251 57.70561534 -134 60 C-133.505 60.99 -133.505 60.99 -133 62 C-131.35 61.67 -129.7 61.34 -128 61 C-128.495 59.515 -128.495 59.515 -129 58 C-131.35402157 57.02748916 -133.64407443 56.21341271 -136.0625 55.4375 C-144.05165831 52.69261905 -150.7516181 48.71907175 -157.76953125 44.07421875 C-160.83648949 41.91757545 -160.83648949 41.91757545 -164 41 C-164 42.65 -164 44.3 -164 46 C-166.375 47.0625 -166.375 47.0625 -169 48 C-169.66 47.67 -170.32 47.34 -171 47 C-171.625 44.4375 -171.625 44.4375 -172 42 C-173.65 41.67 -175.3 41.34 -177 41 C-177 40.34 -177 39.68 -177 39 C-176.34 38.67 -175.68 38.34 -175 38 C-175 37.01 -175 36.02 -175 35 C-173.02 35 -171.04 35 -169 35 C-170.28288757 32.44496043 -170.28288757 32.44496043 -172 30 C-175.01398471 29.6785386 -175.01398471 29.6785386 -176.82421875 31.53125 Z M-21 33 C-20 35 -20 35 -20 35 Z M-33.3125 41.5625 C-42.460357 48.89633437 -51.58873073 53.55749951 -62.75 56.859375 C-65.74342979 57.90995373 -67.71240605 58.82678574 -70 61 C-70 61.66 -70 62.32 -70 63 C-63.88366809 62.61166147 -59.3422664 61.56292215 -53.84765625 58.83984375 C-52 58 -52 58 -50 58 C-50 59.65 -50 61.3 -50 63 C-49.34 63 -48.68 63 -48 63 C-52.79834251 68.7979972 -60.0120105 70.10741951 -67 72 C-66.34 72.66 -65.68 73.32 -65 74 C-61.44005641 73.60978696 -58.34947591 72.43856417 -55.0625 71.0625 C-52.37266503 69.94932824 -49.79745448 68.94092422 -47 68.125 C-39.78072755 65.41777283 -33.05224942 60.73654302 -27 56 C-27 55.34 -27 54.68 -27 54 C-26.34 54 -25.68 54 -25 54 C-25.495 53.01 -25.495 53.01 -26 52 C-27.65 52.99 -29.3 53.98 -31 55 C-31.1546875 54.071875 -31.1546875 54.071875 -31.3125 53.125 C-31.87525373 50.63473516 -31.87525373 50.63473516 -35 49 C-34.21625 48.938125 -33.4325 48.87625 -32.625 48.8125 C-29.81603514 48.267224 -29.81603514 48.267224 -28.6875 45.75 C-28.0093919 43.03756762 -27.84102802 40.78200967 -28 38 C-30.00851573 38 -31.87685847 40.35582841 -33.3125 41.5625 Z M-27 42 C-27 42.99 -27 43.98 -27 45 C-26.34 45 -25.68 45 -25 45 C-25.33 44.01 -25.66 43.02 -26 42 C-26.33 42 -26.66 42 -27 42 Z M-148 59 C-148 59.66 -148 60.32 -148 61 C-147.01 60.67 -146.02 60.34 -145 60 C-145.99 59.67 -146.98 59.34 -148 59 Z M-143 61 C-142 63 -142 63 -142 63 Z M-139 62 C-139 62.66 -139 63.32 -139 64 C-138.01 64 -137.02 64 -136 64 C-136 63.34 -136 62.68 -136 62 C-136.99 62 -137.98 62 -139 62 Z M-118 74 C-118 74.66 -118 75.32 -118 76 C-116.68 75.34 -115.36 74.68 -114 74 C-115.32 74 -116.64 74 -118 74 Z " fill="#F0F0F0" transform="translate(193,182)"/>
<path d="M0 0 C-0.09765625 2.01822917 -0.1953125 4.03645833 -0.29296875 6.0546875 C-0.19628906 6.69664063 -0.09960938 7.33859375 0 8 C0.99 8.66 1.98 9.32 3 10 C3.625 11.8125 3.625 11.8125 4 14 C4.20625 14.825 4.4125 15.65 4.625 16.5 C5.01116611 19.07444076 4.94720625 20.58892955 4 23 C3.01 23.495 3.01 23.495 2 24 C2.99 24.66 3.98 25.32 5 26 C4.67 28.64 4.34 31.28 4 34 C3.01 34 2.02 34 1 34 C0.67 35.32 0.34 36.64 0 38 C-0.99 37.67 -1.98 37.34 -3 37 C-3 37.66 -3 38.32 -3 39 C-16.9716524 43.37101975 -29.28989247 43.17886018 -43 38 C-43 37.34 -43 36.68 -43 36 C-41.515 35.505 -41.515 35.505 -40 35 C-41.65 34.34 -43.3 33.68 -45 33 C-45 31.68 -45 30.36 -45 29 C-42.03 28.34 -39.06 27.68 -36 27 C-36 26.34 -36 25.68 -36 25 C-36.96421875 25.31195313 -37.9284375 25.62390625 -38.921875 25.9453125 C-40.19767936 26.33931091 -41.47373456 26.73249773 -42.75 27.125 C-44.00296875 27.51945312 -45.2559375 27.91390625 -46.546875 28.3203125 C-50 29 -50 29 -52.453125 28.1171875 C-52.96359375 27.74851562 -53.4740625 27.37984375 -54 27 C-54 26.67 -54 26.34 -54 26 C-52.82630859 25.80083984 -52.82630859 25.80083984 -51.62890625 25.59765625 C-50.61699219 25.42105469 -49.60507813 25.24445312 -48.5625 25.0625 C-47.55316406 24.88847656 -46.54382813 24.71445312 -45.50390625 24.53515625 C-43.0712562 24.25248903 -43.0712562 24.25248903 -42 23 C-39.32941149 22.85884839 -36.67567762 22.95752893 -34 23 C-34 22.01 -34 21.02 -34 20 C-38.34184202 20.18464366 -38.34184202 20.18464366 -42 22 C-45.00331018 22.14193337 -47.99217134 22.04236378 -51 22 C-51.33 19.03 -51.66 16.06 -52 13 C-48.9257959 11.55896683 -46.35006575 10.90322393 -43 10.6875 C-38.6166907 10.25081693 -36.92862594 8.25402882 -34 5 C-30.62112875 3.72069463 -27.38256463 3.99704069 -23.8125 4.125 C-17.92340674 4.18461962 -13.39433848 3.25347906 -8 1 C-5.07175348 0.02391783 -3.04386724 -0.08226668 0 0 Z " fill="#121415" transform="translate(123,15)"/>
<path d="M0 0 C3.75059122 2.44936569 4.74479138 4.08124898 5.9375 8.375 C6.32729192 13.7705408 5.2652564 19.11769452 4.484375 24.44140625 C3.57447892 31.1262073 4.04933891 37.34537234 5 44 C0.58510474 43.49544054 -1.89469841 42.18922866 -5 39 C-7.79465503 32.77554107 -7.38106885 25.44158562 -5.3671875 18.96484375 C-4.87776803 16.34592891 -5.52497745 14.73206134 -6.4375 12.25 C-6.72496094 11.45078125 -7.01242188 10.6515625 -7.30859375 9.828125 C-7.65083984 8.92320313 -7.65083984 8.92320313 -8 8 C-11.31102417 8.62077914 -11.31102417 8.62077914 -13.625 11.0625 C-19.26864191 23.11937135 -18.10794408 37.03127307 -17.90405273 50.00292969 C-17.8738583 52.06185756 -17.85610369 54.12060917 -17.83984375 56.1796875 C-17.82300537 57.39382324 -17.80616699 58.60795898 -17.78881836 59.85888672 C-17.99023479 62.85475237 -18.42148168 64.49072032 -20 67 C-20.66 67 -21.32 67 -22 67 C-22.59394909 62.02928046 -23.18014008 57.05776878 -23.75634766 52.08496094 C-23.95054697 50.42317523 -24.15180386 48.7622147 -24.35546875 47.1015625 C-25.80893499 34.42059615 -27.12461766 18.45706015 -19.36328125 7.58203125 C-13.82122228 1.15070207 -8.32962464 -1.26206434 0 0 Z " fill="#121415" transform="translate(155,26)"/>
<path d="M0 0 C0 3.3 0 6.6 0 10 C-0.66 10 -1.32 10 -2 10 C-2 7.69 -2 5.38 -2 3 C-5.465 4.485 -5.465 4.485 -9 6 C-8.2575 6.5775 -7.515 7.155 -6.75 7.75 C-4.31863504 9.73929861 -2.06264597 11.63177685 0 14 C0 14.99 0 15.98 0 17 C-0.66 17 -1.32 17 -2 17 C-2 22.61 -2 28.22 -2 34 C-6 36 -6 36 -10 36 C-12.25 33 -12.25 33 -14 30 C-13.2575 30.33 -12.515 30.66 -11.75 31 C-8.86116688 32.22782871 -8.86116688 32.22782871 -5 32 C-4.94610913 30.04196493 -4.90725783 28.08351091 -4.875 26.125 C-4.85179687 25.03445312 -4.82859375 23.94390625 -4.8046875 22.8203125 C-4.69939466 19.8628949 -4.69939466 19.8628949 -7 18 C-10.11820137 18.35079086 -10.11820137 18.35079086 -13.5625 19.25 C-14.73941406 19.52328125 -15.91632813 19.7965625 -17.12890625 20.078125 C-18.07636719 20.38234375 -19.02382812 20.6865625 -20 21 C-20.33 21.66 -20.66 22.32 -21 23 C-19.02 24.32 -17.04 25.64 -15 27 C-15.33 27.66 -15.66 28.32 -16 29 C-16.99 28.34 -17.98 27.68 -19 27 C-19.33 28.32 -19.66 29.64 -20 31 C-17.69 32.32 -15.38 33.64 -13 35 C-14.73559438 38.057952 -16.38472619 40.63379989 -19 43 C-20.485 42.505 -20.485 42.505 -22 42 C-21.67 43.32 -21.34 44.64 -21 46 C-22.65 46.99 -24.3 47.98 -26 49 C-26 48.34 -26 47.68 -26 47 C-26.66 47 -27.32 47 -28 47 C-27.67 48.32 -27.34 49.64 -27 51 C-29 52 -29 52 -32 52 C-34.1875 50.5 -34.1875 50.5 -36 49 C-35.21625 48.7525 -34.4325 48.505 -33.625 48.25 C-30.93348267 47.23297575 -30.93348267 47.23297575 -29.6875 45.125 C-28.79478648 42.73794466 -28.79478648 42.73794466 -29 39 C-29.45375 39.495 -29.9075 39.99 -30.375 40.5 C-32 42 -32 42 -34 42 C-32.59105472 38.77650398 -30.87255495 36.76380394 -28.375 34.3125 C-25.5302046 31.18673715 -24.57032213 29.43066203 -24.75 25.1875 C-24.89695313 24.09501953 -24.89695313 24.09501953 -25.046875 22.98046875 C-25 21 -25 21 -23.83984375 19.3125 C-21.52074026 17.6581077 -19.61217714 17.28517276 -16.8125 16.8125 C-15.91144531 16.65394531 -15.01039063 16.49539062 -14.08203125 16.33203125 C-13.05142578 16.16767578 -13.05142578 16.16767578 -12 16 C-12.05220703 14.86111328 -12.05220703 14.86111328 -12.10546875 13.69921875 C-12.13253906 12.70535156 -12.15960938 11.71148437 -12.1875 10.6875 C-12.22230469 9.70136719 -12.25710937 8.71523437 -12.29296875 7.69921875 C-12 5 -12 5 -10.640625 3.21875 C-7.13008709 0.61092184 -4.35904732 0 0 0 Z M-21 33 C-20 35 -20 35 -20 35 Z M-27 42 C-27 42.99 -27 43.98 -27 45 C-26.34 45 -25.68 45 -25 45 C-25.33 44.01 -25.66 43.02 -26 42 C-26.33 42 -26.66 42 -27 42 Z " fill="#EDEDED" transform="translate(193,182)"/>
<path d="M0 0 C3.93837 -0.35803364 6.44627112 0.58319118 10 2.19921875 C20.24858044 6.30265428 31.55719747 5.98365786 42 3 C43.32 3 44.64 3 46 3 C46 2.34 46 1.68 46 1 C49.875 1.875 49.875 1.875 51 3 C51.04080783 4.99958364 51.04254356 7.00045254 51 9 C49.67366937 9.6600951 48.33839185 10.30221603 47 10.9375 C46.2575 11.29714844 45.515 11.65679687 44.75 12.02734375 C33.04972692 16.16565056 18.18497424 14.99182267 6.63671875 11.265625 C3.78933474 9.89888068 2.08071666 8.35254426 0 6 C0.66 6 1.32 6 2 6 C2.33 4.68 2.66 3.36 3 2 C2.01 1.34 1.02 0.68 0 0 Z " fill="#D5D6D6" transform="translate(74,51)"/>
<path d="M0 0 C0.66 0 1.32 0 2 0 C2.33 3.63 2.66 7.26 3 11 C5.165625 11.680625 5.165625 11.680625 7.375 12.375 C10.34238372 13.30760631 11.77174356 13.77174356 14 16 C14.1953125 18.6015625 14.1953125 18.6015625 14.125 21.625 C14.10695313 22.62789062 14.08890625 23.63078125 14.0703125 24.6640625 C14.04710938 25.43492187 14.02390625 26.20578125 14 27 C14.59296875 27.26683594 15.1859375 27.53367188 15.796875 27.80859375 C18.03818625 29.02065037 19.44578186 30.27935917 21.25 32.0625 C32.6832765 42.16926376 46.52606824 46.9882037 61 51 C53.02041308 53.1974748 44.15800226 49.61244974 37 46 C30.51592689 42.24614832 24.23242057 38.15494705 18 34 C18.33 35.65 18.66 37.3 19 39 C17.3125 40.625 17.3125 40.625 15 42 C12.25 41.1875 12.25 41.1875 10 40 C10 38.35 10 36.7 10 35 C8.02 35.495 8.02 35.495 6 36 C5.34 34.68 4.68 33.36 4 32 C4.99 31.67 5.98 31.34 7 31 C7 30.01 7 29.02 7 28 C8.65 27.67 10.3 27.34 12 27 C11.35474023 25.5414128 10.7087728 24.08313863 10.0625 22.625 C9.70285156 21.81289062 9.34320312 21.00078125 8.97265625 20.1640625 C7.59572806 16.70167591 7.59572806 16.70167591 4.4375 14.875 C3.633125 14.58625 2.82875 14.2975 2 14 C2 13.34 2 12.68 2 12 C-2.455 11.01 -2.455 11.01 -7 10 C-6.8125 7.6875 -6.8125 7.6875 -6 5 C-3.5 3.3125 -3.5 3.3125 -1 2 C-0.67 1.34 -0.34 0.68 0 0 Z " fill="#C4C4C4" transform="translate(11,189)"/>
<path d="M0 0 C4.5281043 2.32873935 6.86673109 5.1045846 10 9 C10.99 9.495 10.99 9.495 12 10 C-4.48500172 32.26679773 -24.81861442 47.56271806 -52.59765625 52.6953125 C-56.42696176 53.18098052 -60.14461543 53.12436724 -64 53 C-64 52.67 -64 52.34 -64 52 C-61.36 52 -58.72 52 -56 52 C-56 51.34 -56 50.68 -56 50 C-54.67548828 49.76216797 -54.67548828 49.76216797 -53.32421875 49.51953125 C-46.15761847 48.12623947 -39.86877099 46.3409128 -33.31640625 43.1171875 C-31 42 -31 42 -27.9375 41.0625 C-23.25479337 39.36875505 -19.19603287 36.65227361 -15 34 C-14.35933594 33.60039062 -13.71867187 33.20078125 -13.05859375 32.7890625 C-10.01140027 30.8915509 -10.01140027 30.8915509 -8 28 C-9.32 28.33 -10.64 28.66 -12 29 C-12 27.68 -12 26.36 -12 25 C-11.01 24.34 -10.02 23.68 -9 23 C-9 22.34 -9 21.68 -9 21 C-7.68 21 -6.36 21 -5 21 C-4.01 20.67 -3.02 20.34 -2 20 C-2.495 18.02 -2.495 18.02 -3 16 C-1.35 16 0.3 16 2 16 C2.33 15.01 2.66 14.02 3 13 C2.01 12.01 2.01 12.01 1 11 C2.32 10.34 3.64 9.68 5 9 C4.030625 8.401875 3.06125 7.80375 2.0625 7.1875 C-1 5 -1 5 -2 2 C-1.34 1.34 -0.68 0.68 0 0 Z " fill="#D7D7D7" transform="translate(174,208)"/>
<path d="M0 0 C0.66 1.65 1.32 3.3 2 5 C1.01 5.33 0.02 5.66 -1 6 C-1 6.66 -1 7.32 -1 8 C-0.01 8 0.98 8 2 8 C2.66 6.68 3.32 5.36 4 4 C12.66666667 8.33333333 21.33333333 12.66666667 30 17 C29.814375 17.61875 29.62875 18.2375 29.4375 18.875 C28.76313824 21.04160178 28.76313824 21.04160178 30 23 C24.2505408 23.45995674 21.55270001 22.49393256 17 19 C14.7763932 17.7018576 14.7763932 17.7018576 11 18 C10.67 17.34 10.34 16.68 10 16 C9.319375 15.731875 8.63875 15.46375 7.9375 15.1875 C3.72673222 13.48527473 -1.89842499 11.20315001 -4 7 C-4.99 7 -5.98 7 -7 7 C-6.22006468 2.47637516 -4.81844319 0 0 0 Z M11 13 C11 13.66 11 14.32 11 15 C11.99 14.67 12.98 14.34 14 14 C13.01 13.67 12.02 13.34 11 13 Z M16 15 C17 17 17 17 17 17 Z M20 16 C20 16.66 20 17.32 20 18 C20.99 18 21.98 18 23 18 C23 17.34 23 16.68 23 16 C22.01 16 21.02 16 20 16 Z " fill="#898989" transform="translate(34,228)"/>
<path d="M0 0 C1.48199902 0.44909061 2.96055236 0.90956564 4.4375 1.375 C5.26121094 1.63023437 6.08492187 1.88546875 6.93359375 2.1484375 C9 3 9 3 10 5 C7.63707344 7.52588702 6.33537489 8.88820837 3 10 C2.34 9.67 1.68 9.34 1 9 C1.33 10.98 1.66 12.96 2 15 C6.455 15.99 6.455 15.99 11 17 C11 17.33 11 17.66 11 18 C9.02 18 7.04 18 5 18 C3.77482692 23.66642551 3.90771133 29.23708518 4 35 C10.33523443 30.39353807 10.33523443 30.39353807 16 25 C16.99 25.33 17.98 25.66 19 26 C19 26.66 19 27.32 19 28 C17.34151823 29.01351664 15.67334039 30.01120795 14 31 C12.63015802 32.29579647 11.2848951 33.61992749 10 35 C10.66 35.99 11.32 36.98 12 38 C12.12375 38.78375 12.2475 39.5675 12.375 40.375 C13.66380274 45.78797151 18.01191414 49.02240703 22.25 52.3125 C23.14203125 53.00988281 24.0340625 53.70726562 24.953125 54.42578125 C25.62859375 54.94527344 26.3040625 55.46476562 27 56 C26.34 56.66 25.68 57.32 25 58 C22.93302978 56.12973998 20.87145703 54.25404816 18.8125 52.375 C18.23435547 51.85292969 17.65621094 51.33085937 17.06054688 50.79296875 C13.3689667 47.41423435 10.03380001 43.98793297 7 40 C7 39.34 7 38.68 7 38 C5.02 37.34 3.04 36.68 1 36 C1.03480469 34.72382813 1.06960938 33.44765625 1.10546875 32.1328125 C1.13360231 30.46355479 1.16090293 28.7942829 1.1875 27.125 C1.21263672 26.28324219 1.23777344 25.44148438 1.26367188 24.57421875 C1.27817383 23.36572266 1.27817383 23.36572266 1.29296875 22.1328125 C1.3086792 21.38918457 1.32438965 20.64555664 1.34057617 19.87939453 C1.22818604 19.25919434 1.1157959 18.63899414 1 18 C0.01 17.34 -0.98 16.68 -2 16 C-1.85975781 13.52039864 -1.7130815 11.04147598 -1.5625 8.5625 C-1.52318359 7.85544922 -1.48386719 7.14839844 -1.44335938 6.41992188 C-1.11328125 1.11328125 -1.11328125 1.11328125 0 0 Z " fill="#E0E0E0" transform="translate(2,184)"/>
<path d="M0 0 C0 3.3 0 6.6 0 10 C-0.66 10 -1.32 10 -2 10 C-2 7.69 -2 5.38 -2 3 C-5.465 4.485 -5.465 4.485 -9 6 C-8.2575 6.5775 -7.515 7.155 -6.75 7.75 C-4.31863504 9.73929861 -2.06264597 11.63177685 0 14 C0 14.99 0 15.98 0 17 C-0.66 17 -1.32 17 -2 17 C-2 22.61 -2 28.22 -2 34 C-6 36 -6 36 -10 36 C-12.25 33 -12.25 33 -14 30 C-13.2575 30.33 -12.515 30.66 -11.75 31 C-8.86116688 32.22782871 -8.86116688 32.22782871 -5 32 C-4.94610913 30.04196493 -4.90725783 28.08351091 -4.875 26.125 C-4.85179687 25.03445312 -4.82859375 23.94390625 -4.8046875 22.8203125 C-4.69939466 19.8628949 -4.69939466 19.8628949 -7 18 C-10.05057535 18.35249732 -10.05057535 18.35249732 -13.4375 19.25 C-14.59121094 19.52328125 -15.74492187 19.7965625 -16.93359375 20.078125 C-20.13144571 20.87698733 -20.13144571 20.87698733 -23 23 C-23.33 21.68 -23.66 20.36 -24 19 C-18.06 17.515 -18.06 17.515 -12 16 C-12.061875 14.246875 -12.12375 12.49375 -12.1875 10.6875 C-12.37107406 5.48623497 -12.37107406 5.48623497 -10.640625 3.21875 C-7.13008709 0.61092184 -4.35904732 0 0 0 Z " fill="#C9C9C9" transform="translate(193,182)"/>
<path d="M0 0 C0.33 0 0.66 0 1 0 C1 23.76 1 47.52 1 72 C19.48 72 37.96 72 57 72 C57 72.66 57 73.32 57 74 C51.19137669 75.25038129 45.45681083 75.14413637 39.546875 75.1328125 C38.45030579 75.13376923 37.35373657 75.13472595 36.22393799 75.13571167 C33.91426536 75.13639039 31.6045908 75.13455761 29.29492188 75.13037109 C25.74865482 75.12499796 22.20251324 75.13033705 18.65625 75.13671875 C16.41145805 75.13605832 14.16666618 75.13477788 11.921875 75.1328125 C10.85733093 75.13483673 9.79278687 75.13686096 8.69598389 75.13894653 C7.7144635 75.13579437 6.73294312 75.13264221 5.72167969 75.12939453 C4.85597351 75.12859894 3.99026733 75.12780334 3.09832764 75.12698364 C1 75 1 75 -1 74 C-0.67 49.58 -0.34 25.16 0 0 Z " fill="#469146" transform="translate(5,1)"/>
<path d="M0 0 C4.5281043 2.32873935 6.86673109 5.1045846 10 9 C10.66 9.33 11.32 9.66 12 10 C10.37965717 12.14949538 8.75404206 14.2946141 7.125 16.4375 C6.66480469 17.04916016 6.20460937 17.66082031 5.73046875 18.29101562 C2.2265625 22.88671875 2.2265625 22.88671875 0 24 C0.33 22.68 0.66 21.36 1 20 C0.649375 20.5775 0.29875 21.155 -0.0625 21.75 C-3.27140903 25.47647501 -7.33918811 27.44639604 -12 29 C-12 27.68 -12 26.36 -12 25 C-11.01 24.34 -10.02 23.68 -9 23 C-9 22.34 -9 21.68 -9 21 C-7.68 21 -6.36 21 -5 21 C-4.01 20.67 -3.02 20.34 -2 20 C-2.33 18.68 -2.66 17.36 -3 16 C-1.35 16 0.3 16 2 16 C2.33 15.01 2.66 14.02 3 13 C2.34 12.34 1.68 11.68 1 11 C2.32 10.34 3.64 9.68 5 9 C4.030625 8.401875 3.06125 7.80375 2.0625 7.1875 C-1 5 -1 5 -2 2 C-1.34 1.34 -0.68 0.68 0 0 Z " fill="#F2F2F2" transform="translate(174,208)"/>
<path d="M0 0 C3.79080262 1.39156046 7.01853457 3.17386836 10.4375 5.3125 C30.53987018 17.10425617 53.54623985 18.21220227 76.3125 18.0625 C77.65038892 18.05746607 78.9882797 18.05290657 80.32617188 18.04882812 C83.55083085 18.03718676 86.7753896 18.02083703 90 18 C90 18.33 90 18.66 90 19 C84.64289141 19.7428175 79.38829066 20.17880519 73.9765625 20.23828125 C73.23699814 20.24802979 72.49743378 20.25777832 71.73545837 20.26782227 C41.70349065 20.58290556 41.70349065 20.58290556 28 16 C26.85917969 15.649375 25.71835937 15.29875 24.54296875 14.9375 C17.42339769 12.50519103 3.60114101 7.20228201 0 0 Z " fill="#B5B5B5" transform="translate(28,241)"/>
<path d="M0 0 C0.66 0 1.32 0 2 0 C2.33 3.63 2.66 7.26 3 11 C5.165625 11.680625 5.165625 11.680625 7.375 12.375 C10.34238372 13.30760631 11.77174356 13.77174356 14 16 C13.9765625 18.1640625 13.9765625 18.1640625 13.625 20.625 C13.45871094 21.85089844 13.45871094 21.85089844 13.2890625 23.1015625 C13.14597656 24.04128906 13.14597656 24.04128906 13 25 C12.01 24.67 11.02 24.34 10 24 C9.2265625 22.22265625 9.2265625 22.22265625 8.625 20.0625 C7.48101705 16.53283797 7.48101705 16.53283797 4.3125 14.5 C3.549375 14.335 2.78625 14.17 2 14 C2 13.34 2 12.68 2 12 C-2.455 11.01 -2.455 11.01 -7 10 C-6.8125 7.6875 -6.8125 7.6875 -6 5 C-3.5 3.3125 -3.5 3.3125 -1 2 C-0.67 1.34 -0.34 0.68 0 0 Z " fill="#D6D6D6" transform="translate(11,189)"/>
<path d="M0 0 C0.99 0 1.98 0 3 0 C3.33 1.98 3.66 3.96 4 6 C2.35 5.34 0.7 4.68 -1 4 C-0.67 4.99 -0.34 5.98 0 7 C-0.66 7 -1.32 7 -2 7 C-2 6.34 -2 5.68 -2 5 C-2.66 5 -3.32 5 -4 5 C-4 5.99 -4 6.98 -4 8 C-10.435 8.495 -10.435 8.495 -17 9 C-16.67 7.68 -16.34 6.36 -16 5 C-16.99 5 -17.98 5 -19 5 C-19.33 6.32 -19.66 7.64 -20 9 C-20.33 7.02 -20.66 5.04 -21 3 C-18.69 3.33 -16.38 3.66 -14 4 C-14 3.34 -14 2.68 -14 2 C-12.68 2 -11.36 2 -10 2 C-9.67 1.67 -9.34 1.34 -9 1 C-1.54135338 0.63909774 -1.54135338 0.63909774 2 3 C2 2.34 2 1.68 2 1 C1.34 0.67 0.68 0.34 0 0 Z " fill="#545555" transform="translate(122,246)"/>
<path d="M0 0 C0.66 1.65 1.32 3.3 2 5 C1.01 5.33 0.02 5.66 -1 6 C-1 6.66 -1 7.32 -1 8 C-0.01 8 0.98 8 2 8 C2.66 6.68 3.32 5.36 4 4 C6.64 5.32 9.28 6.64 12 8 C11.67 8.99 11.34 9.98 11 11 C11 10.34 11 9.68 11 9 C10.34 9 9.68 9 9 9 C9.33 10.65 9.66 12.3 10 14 C8.29296875 14.67578125 8.29296875 14.67578125 6 15 C3.67578125 13.85546875 3.67578125 13.85546875 1.3125 12.1875 C0.52488281 11.64480469 -0.26273438 11.10210937 -1.07421875 10.54296875 C-3 9 -3 9 -4 7 C-4.99 7 -5.98 7 -7 7 C-6.22006468 2.47637516 -4.81844319 0 0 0 Z " fill="#717171" transform="translate(34,228)"/>
<path d="M0 0 C2.02045442 0.60183749 4.02111039 1.27306096 6 2 C6.33 2.66 6.66 3.32 7 4 C6.34 4.66 5.68 5.32 5 6 C4.690625 6.680625 4.38125 7.36125 4.0625 8.0625 C3 10 3 10 0 11 C-0.66 10.67 -1.32 10.34 -2 10 C-1.67 11.32 -1.34 12.64 -1 14 C-3.475 15.485 -3.475 15.485 -6 17 C-6 16.34 -6 15.68 -6 15 C-6.66 15 -7.32 15 -8 15 C-7.67 16.32 -7.34 17.64 -7 19 C-9 20 -9 20 -12 20 C-14.1875 18.5 -14.1875 18.5 -16 17 C-15.195625 16.731875 -14.39125 16.46375 -13.5625 16.1875 C-12.716875 15.795625 -11.87125 15.40375 -11 15 C-10.67 14.01 -10.34 13.02 -10 12 C-8.35 12.33 -6.7 12.66 -5 13 C-5.33 11.02 -5.66 9.04 -6 7 C-3.69 7 -1.38 7 1 7 C-0.32 6.67 -1.64 6.34 -3 6 C-2.67 5.01 -2.34 4.02 -2 3 C-1.34 3 -0.68 3 0 3 C0 2.01 0 1.02 0 0 Z " fill="#5D5E5E" transform="translate(173,214)"/>
<path d="M0 0 C3.875 0.875 3.875 0.875 5 2 C5.04080783 3.99958364 5.04254356 6.00045254 5 8 C2.625 9.0625 2.625 9.0625 0 10 C-2 9 -2 9 -3 6 C-3.33 7.32 -3.66 8.64 -4 10 C-6.31 10.33 -8.62 10.66 -11 11 C-11.33 8.69 -11.66 6.38 -12 4 C-10.7625 3.67 -9.525 3.34 -8.25 3 C-7.20585938 2.7215625 -7.20585938 2.7215625 -6.140625 2.4375 C-4 2 -4 2 0 2 C0 1.34 0 0.68 0 0 Z " fill="#5A5A5A" transform="translate(120,52)"/>
<path d="M0 0 C0.66 1.98 1.32 3.96 2 6 C3.65 6.33 5.3 6.66 7 7 C7.33 8.65 7.66 10.3 8 12 C6.3125 13.625 6.3125 13.625 4 15 C1.25 14.1875 1.25 14.1875 -1 13 C-1 11.35 -1 9.7 -1 8 C-2.32 8.33 -3.64 8.66 -5 9 C-5.66 7.68 -6.32 6.36 -7 5 C-6.01 4.67 -5.02 4.34 -4 4 C-4 3.01 -4 2.02 -4 1 C-2 0 -2 0 0 0 Z " fill="#A7A8A8" transform="translate(22,216)"/>
<path d="M0 0 C0.99 0.33 1.98 0.66 3 1 C3.33 3.31 3.66 5.62 4 8 C2.68 8.33 1.36 8.66 0 9 C0 9.66 0 10.32 0 11 C-2.8125 11.625 -2.8125 11.625 -6 12 C-6.99 11.34 -7.98 10.68 -9 10 C-8.61855607 7.34723083 -8.18209887 6.18169057 -6.2578125 4.26171875 C-5.20207031 3.48248047 -5.20207031 3.48248047 -4.125 2.6875 C-3.42632812 2.15511719 -2.72765625 1.62273437 -2.0078125 1.07421875 C-1.34523437 0.71972656 -0.68265625 0.36523438 0 0 Z " fill="#C3C3C3" transform="translate(154,232)"/>
<path d="M0 0 C0 3.3 0 6.6 0 10 C-0.66 10 -1.32 10 -2 10 C-2 7.69 -2 5.38 -2 3 C-5.465 4.485 -5.465 4.485 -9 6 C-8.175 6.928125 -7.35 7.85625 -6.5 8.8125 C-4 11.625 -4 11.625 -4 15 C-6.31 15.33 -8.62 15.66 -11 16 C-11.24915939 14.23186888 -11.47366632 12.46025018 -11.6875 10.6875 C-11.81511719 9.70136719 -11.94273437 8.71523437 -12.07421875 7.69921875 C-12 5 -12 5 -10.671875 3.21875 C-7.12808917 0.63542949 -4.37911251 0 0 0 Z " fill="#232425" transform="translate(193,182)"/>
<path d="M0 0 C0.99 0 1.98 0 3 0 C3 0.99 3 1.98 3 3 C2.37351563 3.27714844 1.74703125 3.55429688 1.1015625 3.83984375 C0.28429687 4.20207031 -0.53296875 4.56429687 -1.375 4.9375 C-2.18710938 5.29714844 -2.99921875 5.65679687 -3.8359375 6.02734375 C-5.23683785 6.6569903 -6.62625284 7.31312642 -8 8 C-9.99960012 8.039992 -12.00047242 8.04346799 -14 8 C-12.68 7.67 -11.36 7.34 -10 7 C-10.66 6.01 -11.32 5.02 -12 4 C-11.625 1.8125 -11.625 1.8125 -11 0 C-10.01 0.33 -9.02 0.66 -8 1 C-7.67 1.99 -7.34 2.98 -7 4 C-6.89459074 1.78918149 -6.89459074 1.78918149 -8 -1 C-4.32264395 -2.22578535 -3.44933477 -1.46596728 0 0 Z " fill="#F6F6F6" transform="translate(141,245)"/>
<path d="M0 0 C1.0326802 2.78823655 1.04509293 3.8677274 0.0625 6.75 C-0.288125 7.4925 -0.63875 8.235 -1 9 C-4.16226263 9.46277014 -6.24892239 9.49921925 -8.95703125 7.69921875 C-10.72210584 6.19297384 -12.41391213 4.69401693 -14 3 C-14 2.67 -14 2.34 -14 2 C-9.38 2 -4.76 2 0 2 C0 1.34 0 0.68 0 0 Z " fill="#116715" transform="translate(72,141)"/>
<path d="M0 0 C0.66 0 1.32 0 2 0 C2 0.99 2 1.98 2 3 C2.66 2.34 3.32 1.68 4 1 C6.72869407 1.03287583 9.2966618 1.56397771 12 2 C12.33 3.65 12.66 5.3 13 7 C10.58959839 8.53690745 9.49917715 9.09752136 6.640625 8.5390625 C5.85171875 8.23742188 5.0628125 7.93578125 4.25 7.625 C3.05117187 7.18027344 3.05117187 7.18027344 1.828125 6.7265625 C1.22484375 6.48679687 0.6215625 6.24703125 0 6 C-0.38218767 4.34385343 -0.71395102 2.67542976 -1 1 C-0.67 0.67 -0.34 0.34 0 0 Z " fill="#8E8F8F" transform="translate(78,55)"/>
<path d="M0 0 C3.92436095 -0.35676009 6.4284155 0.55745192 9.9609375 2.19921875 C14.30349616 3.90462972 19.32271828 5 24 5 C24 5.66 24 6.32 24 7 C23.01 7 22.02 7 21 7 C20.67 7.66 20.34 8.32 20 9 C20 8.34 20 7.68 20 7 C19.34 7 18.68 7 18 7 C18 8.65 18 10.3 18 12 C16.68 12.33 15.36 12.66 14 13 C14.66 12.01 15.32 11.02 16 10 C16 9.01 16 8.02 16 7 C14.081875 6.690625 14.081875 6.690625 12.125 6.375 C11.40570313 6.25898437 10.68640625 6.14296875 9.9453125 6.0234375 C9.30335937 6.01570313 8.66140625 6.00796875 8 6 C7.34 6.66 6.68 7.32 6 8 C5.67 7.34 5.34 6.68 5 6 C5.33 5.34 5.66 4.68 6 4 C5.01 4.495 5.01 4.495 4 5 C4 5.99 4 6.98 4 8 C2.68 7.67 1.36 7.34 0 7 C0.66 6.67 1.32 6.34 2 6 C2.65213292 3.97536745 2.65213292 3.97536745 3 2 C2.01 1.34 1.02 0.68 0 0 Z " fill="#DEDFDF" transform="translate(74,51)"/>
<path d="M0 0 C6.93359375 2.1484375 6.93359375 2.1484375 9 3 C9.33 3.66 9.66 4.32 10 5 C7.63707344 7.52588702 6.33537489 8.88820837 3 10 C2.34 9.67 1.68 9.34 1 9 C1 10.98 1 12.96 1 15 C0.67 15 0.34 15 0 15 C0 10.05 0 5.1 0 0 Z " fill="#EAEAEA" transform="translate(2,184)"/>
<path d="M0 0 C1.52519276 0.08937803 3.04681929 0.24537146 4.5625 0.4375 C5.80193359 0.59025391 5.80193359 0.59025391 7.06640625 0.74609375 C7.70449219 0.82988281 8.34257813 0.91367188 9 1 C9 1.99 9 2.98 9 4 C9.66 4 10.32 4 11 4 C11 3.34 11 2.68 11 2 C14.3 2 17.6 2 21 2 C20.67 2.66 20.34 3.32 20 4 C19.01 3.67 18.02 3.34 17 3 C17 3.66 17 4.32 17 5 C17.99 5.33 18.98 5.66 20 6 C19.01 6 18.02 6 17 6 C17 6.66 17 7.32 17 8 C16.34 8 15.68 8 15 8 C15 6.35 15 4.7 15 3 C14.34 3 13.68 3 13 3 C13 4.65 13 6.3 13 8 C11 8 11 8 9.375 6.5 C8.92125 6.005 8.4675 5.51 8 5 C7.67 5.99 7.34 6.98 7 8 C6.67 6.35 6.34 4.7 6 3 C5.01 2.67 4.02 2.34 3 2 C3 3.65 3 5.3 3 7 C2.01 6.67 1.02 6.34 0 6 C0.33 5.01 0.66 4.02 1 3 C0.34 2.34 -0.32 1.68 -1 1 C-0.67 0.67 -0.34 0.34 0 0 Z " fill="#404141" transform="translate(76,247)"/>
<path d="M0 0 C0 1.98 0 3.96 0 6 C-1.32 6.33 -2.64 6.66 -4 7 C-4 6.34 -4 5.68 -4 5 C-7.04913228 3.98888907 -7.04913228 3.98888907 -10 5 C-9.34 6.32 -8.68 7.64 -8 9 C-8.99 9.33 -9.98 9.66 -11 10 C-11.33 8.68 -11.66 7.36 -12 6 C-12.66 6 -13.32 6 -14 6 C-13.67 7.65 -13.34 9.3 -13 11 C-13.99 10.67 -14.98 10.34 -16 10 C-17.1875 7.4375 -17.1875 7.4375 -18 5 C-16.824375 4.566875 -15.64875 4.13375 -14.4375 3.6875 C-11.62704762 2.64603804 -8.90587487 1.51044305 -6.1875 0.25 C-3 -1 -3 -1 0 0 Z " fill="#4F5051" transform="translate(144,240)"/>
<path d="M0 0 C3.63591518 0.594146 6.52172529 1.61238613 9.8125 3.25 C16.96231958 6.60943577 24.44078279 8.77112165 32 11 C24.15121465 13.49082457 15.0824906 9.38027961 8 6 C5.23983375 4.46757004 2.52644479 2.89836215 0 1 C0 0.67 0 0.34 0 0 Z " fill="#CBCBCB" transform="translate(40,229)"/>
<path d="M0 0 C0.66 0.33 1.32 0.66 2 1 C1.34 2.98 0.68 4.96 0 7 C1.32 7.66 2.64 8.32 4 9 C4 9.33 4 9.66 4 10 C1.69 10 -0.62 10 -3 10 C-3.33 10.99 -3.66 11.98 -4 13 C-4.66 13.66 -5.32 14.32 -6 15 C-7.49986273 12.00027454 -7.5048832 10.34485121 -7 7 C-4.90517892 4.38671071 -2.53294512 2.184019 0 0 Z " fill="#F4F4F4" transform="translate(171,212)"/>
<path d="M0 0 C0.33 0 0.66 0 1 0 C1 3.63 1 7.26 1 11 C-1.64 10.67 -4.28 10.34 -7 10 C-6.8125 7.6875 -6.8125 7.6875 -6 5 C-3.5 3.3125 -3.5 3.3125 -1 2 C-0.67 1.34 -0.34 0.68 0 0 Z " fill="#292C2D" transform="translate(11,189)"/>
<path d="M0 0 C1.32 0 2.64 0 4 0 C4.33 1.98 4.66 3.96 5 6 C5.99 6 6.98 6 8 6 C8.33 5.01 8.66 4.02 9 3 C9 3.66 9 4.32 9 5 C9.99 5 10.98 5 12 5 C12 3.35 12 1.7 12 0 C12.66 0.33 13.32 0.66 14 1 C14 1.99 14 2.98 14 4 C14.66 4.33 15.32 4.66 16 5 C11.10432344 6.88295252 6.23965246 7.86376904 1 8 C0.34 7.67 -0.32 7.34 -1 7 C-1 5.68 -1 4.36 -1 3 C-0.34 3 0.32 3 1 3 C1 3.99 1 4.98 1 6 C1.66 6 2.32 6 3 6 C2.42655063 3.13275314 2.1385485 2.1385485 0 0 Z " fill="#E0E0E0" transform="translate(104,57)"/>
<path d="M0 0 C4.09160767 1.9873523 5.91946685 4.27317899 8.3984375 8.015625 C11.62196485 12.009654 15.91005657 14.94246947 20 18 C19.34 18.66 18.68 19.32 18 20 C15.93302978 18.12973998 13.87145703 16.25404816 11.8125 14.375 C11.23435547 13.85292969 10.65621094 13.33085937 10.06054688 12.79296875 C6.3689667 9.41423435 3.03380001 5.98793297 0 2 C0 1.34 0 0.68 0 0 Z " fill="#CACACA" transform="translate(9,222)"/>
<path d="M0 0 C0.66 0 1.32 0 2 0 C2 1.65 2 3.3 2 5 C2.66 5 3.32 5 4 5 C4 3.35 4 1.7 4 0 C5.32 0.33 6.64 0.66 8 1 C8.5625 2.9375 8.5625 2.9375 9 5 C8 6 8 6 4.83984375 6.09765625 C2.90818359 6.08025391 2.90818359 6.08025391 0.9375 6.0625 C-0.35285156 6.05347656 -1.64320312 6.04445313 -2.97265625 6.03515625 C-3.97167969 6.02355469 -4.97070312 6.01195312 -6 6 C-5.67 4.68 -5.34 3.36 -5 2 C-4.01 2.33 -3.02 2.66 -2 3 C-2 3.66 -2 4.32 -2 5 C-1.34 5 -0.68 5 0 5 C0 3.35 0 1.7 0 0 Z " fill="#C7C7C7" transform="translate(89,250)"/>
<path d="M0 0 C3.875 0.875 3.875 0.875 5 2 C5.04080783 3.99958364 5.04254356 6.00045254 5 8 C3.35 8.66 1.7 9.32 0 10 C-0.12375 8.865625 -0.2475 7.73125 -0.375 6.5625 C-0.58125 5.386875 -0.7875 4.21125 -1 3 C-1.66 2.67 -2.32 2.34 -3 2 C-2.01 2 -1.02 2 0 2 C0 1.34 0 0.68 0 0 Z " fill="#A0A1A0" transform="translate(120,52)"/>
<path d="M0 0 C2.02045442 0.60183749 4.02111039 1.27306096 6 2 C6.33 2.66 6.66 3.32 7 4 C6.34 4.66 5.68 5.32 5 6 C3.98758315 7.32392972 2.98560611 8.65599167 2 10 C0.68 9.34 -0.64 8.68 -2 8 C-1.01 7.67 -0.02 7.34 1 7 C-0.32 6.67 -1.64 6.34 -3 6 C-2.67 5.01 -2.34 4.02 -2 3 C-1.34 3 -0.68 3 0 3 C0 2.01 0 1.02 0 0 Z " fill="#7A7B7B" transform="translate(173,214)"/>
<path d="M0 0 C1.32 0.33 2.64 0.66 4 1 C4 1.99 4 2.98 4 4 C3.34 4 2.68 4 2 4 C2 4.99 2 5.98 2 7 C0.35 7 -1.3 7 -3 7 C-2.67 5.68 -2.34 4.36 -2 3 C-2.99 3 -3.98 3 -5 3 C-5.33 4.32 -5.66 5.64 -6 7 C-6.33 5.02 -6.66 3.04 -7 1 C-4.69 1.33 -2.38 1.66 0 2 C0 1.34 0 0.68 0 0 Z " fill="#3D3E3E" transform="translate(108,248)"/>
<path d="M0 0 C0.99 0.33 1.98 0.66 3 1 C3.75 2.9375 3.75 2.9375 4 5 C3.67 5.66 3.34 6.32 3 7 C2.01 7 1.02 7 0 7 C-0.66 7.66 -1.32 8.32 -2 9 C-3.32 7.35 -4.64 5.7 -6 4 C-3.1875 1.9375 -3.1875 1.9375 0 0 Z " fill="#707071" transform="translate(154,232)"/>
<path d="M0 0 C-2.64944454 2.64944454 -4.78821572 2.75142887 -8.4375 3.5 C-12.29898789 4.29387014 -14.69953905 4.7996927 -18 7 C-18.33 5.68 -18.66 4.36 -19 3 C-6.51480638 -0.44419134 -6.51480638 -0.44419134 0 0 Z " fill="#E9E9E9" transform="translate(188,198)"/>
<path d="M0 0 C0 3.3 0 6.6 0 10 C-0.66 10 -1.32 10 -2 10 C-2 7.69 -2 5.38 -2 3 C-3.6396875 3.7425 -3.6396875 3.7425 -5.3125 4.5 C-9 6 -9 6 -12 6 C-8.86750183 1.05395025 -5.76789955 0 0 0 Z " fill="#ADAEAE" transform="translate(193,182)"/>
<path d="M0 0 C0.94875 0.350625 1.8975 0.70125 2.875 1.0625 C3.205 2.7125 3.535 4.3625 3.875 6.0625 C3.215 6.0625 2.555 6.0625 1.875 6.0625 C1.875 5.0725 1.875 4.0825 1.875 3.0625 C1.215 3.0625 0.555 3.0625 -0.125 3.0625 C-0.125 4.3825 -0.125 5.7025 -0.125 7.0625 C0.535 7.3925 1.195 7.7225 1.875 8.0625 C-0.105 8.0625 -2.085 8.0625 -4.125 8.0625 C-3.91875 7.11375 -3.7125 6.165 -3.5 5.1875 C-3.37625 4.15625 -3.2525 3.125 -3.125 2.0625 C-3.785 1.4025 -4.445 0.7425 -5.125 0.0625 C-3.125 -0.9375 -3.125 -0.9375 0 0 Z " fill="#7C7C7D" transform="translate(103.125,56.9375)"/>
<path d="M0 0 C0.33 0 0.66 0 1 0 C1.06058594 0.84304687 1.12117187 1.68609375 1.18359375 2.5546875 C1.26738281 3.65039062 1.35117187 4.74609375 1.4375 5.875 C1.51871094 6.96554688 1.59992188 8.05609375 1.68359375 9.1796875 C1.83001703 11.94728971 1.83001703 11.94728971 3 14 C3.99 14.33 4.98 14.66 6 15 C5.34 15 4.68 15 4 15 C4 16.98 4 18.96 4 21 C3.731875 20.38125 3.46375 19.7625 3.1875 19.125 C2.04443152 16.7004767 2.04443152 16.7004767 -1 15 C-0.67 10.05 -0.34 5.1 0 0 Z " fill="#A7A8A8" transform="translate(1,185)"/>
<path d="M0 0 C0.66 0.66 1.32 1.32 2 2 C2.33 1.34 2.66 0.68 3 0 C4.32 0.66 5.64 1.32 7 2 C6.814375 2.61875 6.62875 3.2375 6.4375 3.875 C5.76313824 6.04160178 5.76313824 6.04160178 7 8 C3.5625 7.1875 3.5625 7.1875 0 6 C-1 3 -1 3 0 0 Z " fill="#535454" transform="translate(57,243)"/>
<path d="M0 0 C0.33 1.32 0.66 2.64 1 4 C0.01 4.33 -0.98 4.66 -2 5 C-2.33 5.99 -2.66 6.98 -3 8 C-4.32 7.67 -5.64 7.34 -7 7 C-6.22006468 2.47637516 -4.81844319 0 0 0 Z " fill="#707171" transform="translate(34,228)"/>
<path d="M0 0 C0.226875 0.53625 0.45375 1.0725 0.6875 1.625 C2.43382056 4.78500863 4.6402849 7.2676983 7 10 C4.69 9.67 2.38 9.34 0 9 C-1.25664978 6.09399739 -2 4.20395416 -2 1 C-1.34 0.67 -0.68 0.34 0 0 Z " fill="#EEEEEE" transform="translate(24,213)"/>
<path d="M0 0 C4.8 2.46153846 4.8 2.46153846 5.8125 5.1875 C5.874375 5.785625 5.93625 6.38375 6 7 C5.01 7.33 4.02 7.66 3 8 C1.35 6.35 -0.3 4.7 -2 3 C-1.34 2.01 -0.68 1.02 0 0 Z " fill="#F5F5F5" transform="translate(174,208)"/>
<path d="M0 0 C1.65 0 3.3 0 5 0 C4.01 0.33 3.02 0.66 2 1 C2 1.66 2 2.32 2 3 C2.61875 3.28875 3.2375 3.5775 3.875 3.875 C6 5 6 5 8 7 C8.33 6.34 8.66 5.68 9 5 C9.33 5.99 9.66 6.98 10 8 C5.18569279 8.56638908 2.79692186 6.82561627 -1 4 C-0.67 2.68 -0.34 1.36 0 0 Z " fill="#CCCCCC" transform="translate(52,243)"/>
<path d="M0 0 C1.32 0.66 2.64 1.32 4 2 C3.67 4.97 3.34 7.94 3 11 C2.01 10.67 1.02 10.34 0 10 C-0.33 8.35 -0.66 6.7 -1 5 C-0.34 5 0.32 5 1 5 C0.67 3.35 0.34 1.7 0 0 Z " fill="#747575" transform="translate(21,203)"/>
<path d="M0 0 C0.66 0 1.32 0 2 0 C0.5243763 3.85674376 -1.47006893 5.21823735 -5 7.25 C-5.886875 7.77078125 -6.77375 8.2915625 -7.6875 8.828125 C-10 10 -10 10 -12 10 C-12 9.34 -12 8.68 -12 8 C-10.23596271 6.74163402 -8.41220501 5.5661735 -6.5625 4.4375 C-3.09563564 2.46466077 -3.09563564 2.46466077 0 0 Z " fill="#EEEFEF" transform="translate(157,223)"/>
<path d="M0 0 C1.65 0 3.3 0 5 0 C5.33 1.98 5.66 3.96 6 6 C4.35 6.33 2.7 6.66 1 7 C0.67 4.69 0.34 2.38 0 0 Z " fill="#959595" transform="translate(108,56)"/>
<path d="M0 0 C1.134375 0.020625 2.26875 0.04125 3.4375 0.0625 C3.4375 1.0525 3.4375 2.0425 3.4375 3.0625 C-2.16813042 3.88872671 -6.98539352 4.13045656 -12.5625 3.0625 C-12.5625 2.7325 -12.5625 2.4025 -12.5625 2.0625 C-10.51171875 1.83463542 -8.4609375 1.60677083 -6.41015625 1.37890625 C-3.20046765 0.82925556 -4.00105232 0.0701939 0 0 Z " fill="#135A17" transform="translate(85.5625,34.9375)"/>
<path d="M0 0 C0 0.99 0 1.98 0 3 C-1.72156096 4.01303762 -3.45261806 5.00994848 -5.1875 6 C-6.63189453 6.8353125 -6.63189453 6.8353125 -8.10546875 7.6875 C-11.04888743 9.02216758 -12.81880057 9.27915461 -16 9 C-14.43318638 5.86637276 -11.78391746 5.65731098 -8.5625 4.5 C-3.85565843 2.92730899 -3.85565843 2.92730899 0 0 Z " fill="#E2E2E2" transform="translate(69,88)"/>
<path d="M0 0 C0.66 0 1.32 0 2 0 C1.47731534 2.76276177 0.89130413 5.3260876 0 8 C-0.99 8 -1.98 8 -3 8 C-3.33 9.65 -3.66 11.3 -4 13 C-4.99 12.67 -5.98 12.34 -7 12 C-4.375 7.125 -4.375 7.125 -1 6 C-0.67 4.02 -0.34 2.04 0 0 Z " fill="#D1D1D1" transform="translate(51,93)"/>
<path d="M0 0 C11.52164009 -0.18451025 11.52164009 -0.18451025 17 1 C13.62492304 3.2500513 12.91875815 3.19071522 9.0625 2.75 C8.20785156 2.66234375 7.35320312 2.5746875 6.47265625 2.484375 C4.00272402 2.00053362 2.18016278 1.23424529 0 0 Z " fill="#CFD0D0" transform="translate(59,257)"/>
<path d="M0 0 C1.32 1.65 2.64 3.3 4 5 C3.01 5.66 2.02 6.32 1 7 C0.67 5.68 0.34 4.36 0 3 C-0.66 3 -1.32 3 -2 3 C-1.67 4.65 -1.34 6.3 -1 8 C-1.99 7.67 -2.98 7.34 -4 7 C-5.1875 4.4375 -5.1875 4.4375 -6 2 C-4.02 1.34 -2.04 0.68 0 0 Z " fill="#434545" transform="translate(132,243)"/>
<path d="M0 0 C1.65 0 3.3 0 5 0 C4.67 0.66 4.34 1.32 4 2 C4 2.66 4 3.32 4 4 C4 5 4 6 4 7 C1.69 6.67 -0.62 6.34 -3 6 C-2.01 4.02 -1.02 2.04 0 0 Z " fill="#616262" transform="translate(67,246)"/>
<path d="M0 0 C-1 3 -1 3 -2.63671875 3.94921875 C-6.91126307 5.4880547 -10.38405568 6.34619582 -15 6 C-12.29954818 4.19969878 -9.93322119 3.06622934 -6.9375 1.875 C-6.05964844 1.52179688 -5.18179688 1.16859375 -4.27734375 0.8046875 C-2 0 -2 0 0 0 Z " fill="#E2E2E2" transform="translate(145,232)"/>
<path d="M0 0 C0 0.99 0 1.98 0 3 C-0.66 3 -1.32 3 -2 3 C-2 3.66 -2 4.32 -2 5 C-0.35 5 1.3 5 3 5 C2.67 6.32 2.34 7.64 2 9 C0.02 8.01 -1.96 7.02 -4 6 C-3.6875 4.125 -3.6875 4.125 -3 2 C-2.01 1.34 -1.02 0.68 0 0 Z " fill="#C1C1C2" transform="translate(35,231)"/>
<path d="M0 0 C0.33 1.32 0.66 2.64 1 4 C-0.98 4.99 -2.96 5.98 -5 7 C-5.33 6.01 -5.66 5.02 -6 4 C-5.34 4 -4.68 4 -4 4 C-4 3.01 -4 2.02 -4 1 C-2 0 -2 0 0 0 Z " fill="#848586" transform="translate(22,216)"/>
<path d="M0 0 C1.98 0 3.96 0 6 0 C6 1.98 6 3.96 6 6 C5.01 5.34 4.02 4.68 3 4 C2.01 4.33 1.02 4.66 0 5 C0 3.35 0 1.7 0 0 Z " fill="#6E6E6F" transform="translate(92,58)"/>
<path d="M0 0 C5.56890517 0.47986031 10.67067568 1.29915181 16 3 C12.66355017 4.09404518 10.2934212 3.89669485 6.875 3.1875 C6.00617187 3.01605469 5.13734375 2.84460938 4.2421875 2.66796875 C2 2 2 2 0 0 Z " fill="#C2C2C2" transform="translate(56,237)"/>
<path d="M0 0 C2.475 0.99 2.475 0.99 5 2 C4.01 2.495 4.01 2.495 3 3 C3 3.99 3 4.98 3 6 C2.01 6.33 1.02 6.66 0 7 C-1 6 -1 6 -1.125 3.5 C-1 1 -1 1 0 0 Z " fill="#6F7970" transform="translate(73,51)"/>
<path d="M0 0 C1.98 0 3.96 0 6 0 C5.67 1.32 5.34 2.64 5 4 C3.35 4 1.7 4 0 4 C0 2.68 0 1.36 0 0 Z " fill="#F2F2F2" transform="translate(90,25)"/>
<path d="M0 0 C2.31 0.33 4.62 0.66 7 1 C6.67 1.99 6.34 2.98 6 4 C4.68 4 3.36 4 2 4 C1.67 4.99 1.34 5.98 1 7 C0.34 6.67 -0.32 6.34 -1 6 C-0.835 5.38125 -0.67 4.7625 -0.5 4.125 C0.07634644 2.03936614 0.07634644 2.03936614 0 0 Z " fill="#C8C9C9" transform="translate(43,237)"/>
<path d="M0 0 C2.475 0.99 2.475 0.99 5 2 C4.34 3.32 3.68 4.64 3 6 C0.5625 5.625 0.5625 5.625 -2 5 C-2.33 4.34 -2.66 3.68 -3 3 C-2.01 2.01 -1.02 1.02 0 0 Z " fill="#DBDBDB" transform="translate(84,57)"/>
<path d="M0 0 C0 0.66 0 1.32 0 2 C-2.91708924 3.98362069 -4.12380904 3.9876191 -7.75 3.625 C-8.8225 3.41875 -9.895 3.2125 -11 3 C-7.25667087 0.99464511 -4.26323685 0 0 0 Z " fill="#135C17" transform="translate(87,40)"/>
<path d="M0 0 C1.32 0 2.64 0 4 0 C4 1.98 4 3.96 4 6 C2.35 6 0.7 6 -1 6 C-0.67 4.02 -0.34 2.04 0 0 Z " fill="#D8D8D8" transform="translate(79,249)"/>
<path d="M0 0 C-2.34109882 1.56073255 -4.56333403 2.86373867 -7.0625 4.125 C-8.10083984 4.65480469 -8.10083984 4.65480469 -9.16015625 5.1953125 C-11 6 -11 6 -13 6 C-12 3 -12 3 -8.75 1.3125 C-5.45873369 0.16055679 -3.4127883 -0.31025348 0 0 Z " fill="#E5E6E6" transform="translate(41,97)"/>
<path d="M0 0 C1.65 0 3.3 0 5 0 C5.33 1.65 5.66 3.3 6 5 C3.69 5 1.38 5 -1 5 C-0.67 3.35 -0.34 1.7 0 0 Z " fill="#C6C7C7" transform="translate(101,251)"/>
<path d="M0 0 C0 0.66 0 1.32 0 2 C-0.99 2.495 -0.99 2.495 -2 3 C-2 3.66 -2 4.32 -2 5 C-3.65 4.67 -5.3 4.34 -7 4 C-7 3.01 -7 2.02 -7 1 C-2.25 0 -2.25 0 0 0 Z " fill="#D8D8D8" transform="translate(119,248)"/>
<path d="M0 0 C0.66 0.33 1.32 0.66 2 1 C1.67 1.66 1.34 2.32 1 3 C2.32 3.33 3.64 3.66 5 4 C5 4.99 5 5.98 5 7 C2.83125748 6.49396008 1.00032373 6.00016187 -1 5 C-0.67 3.35 -0.34 1.7 0 0 Z " fill="#989898" transform="translate(38,236)"/>
<path d="M0 0 C0 4.07746885 -1.52068051 5.83198065 -4 9 C-6.25 9.875 -6.25 9.875 -8 10 C-6.76044505 6.28133515 -4.81445146 4.67716114 -2 2 C-1.34 1.34 -0.68 0.68 0 0 Z " fill="#C4C5C5" transform="translate(176,226)"/>
<path d="M0 0 C0.68359375 1.765625 0.68359375 1.765625 1 4 C-0.21484375 5.921875 -0.21484375 5.921875 -1.9375 7.75 C-2.50339844 8.36359375 -3.06929687 8.9771875 -3.65234375 9.609375 C-4.31943359 10.29773438 -4.31943359 10.29773438 -5 11 C-5 7.58678765 -4.33132534 6.60527115 -2.5 3.8125 C-2.0359375 3.09707031 -1.571875 2.38164062 -1.09375 1.64453125 C-0.7328125 1.10183594 -0.371875 0.55914062 0 0 Z " fill="#E0E0E0" transform="translate(180,221)"/>
<path d="M0 0 C1.98 0.99 1.98 0.99 4 2 C3.25 6.75 3.25 6.75 1 9 C0.67 6.03 0.34 3.06 0 0 Z " fill="#313232" transform="translate(168,203)"/>
<path d="M0 0 C0 0.66 0 1.32 0 2 C-6.625 5 -6.625 5 -10 5 C-7.05274682 0.64929292 -5.38362365 0 0 0 Z " fill="#EDEEEE" transform="translate(191,183)"/>
<path d="M0 0 C2.31 0 4.62 0 7 0 C6.67 0.66 6.34 1.32 6 2 C5.01 1.67 4.02 1.34 3 1 C3 1.66 3 2.32 3 3 C3.99 3.33 4.98 3.66 6 4 C5.01 4 4.02 4 3 4 C3 4.66 3 5.32 3 6 C2.34 6 1.68 6 1 6 C0.67 4.02 0.34 2.04 0 0 Z " fill="#595A5A" transform="translate(90,249)"/>
<path d="M0 0 C1.32 0 2.64 0 4 0 C3.67 2.31 3.34 4.62 3 7 C2.01 6.67 1.02 6.34 0 6 C0.33 5.01 0.66 4.02 1 3 C0.34 2.34 -0.32 1.68 -1 1 C-0.67 0.67 -0.34 0.34 0 0 Z " fill="#5E5F60" transform="translate(76,247)"/>
<path d="M0 0 C0.99 0.33 1.98 0.66 3 1 C2.67 2.65 2.34 4.3 2 6 C0.35 5.01 -1.3 4.02 -3 3 C-2.01 2.01 -1.02 1.02 0 0 Z " fill="#B2B3B3" transform="translate(141,239)"/>
<path d="M0 0 C0.66 0 1.32 0 2 0 C2.33 0.99 2.66 1.98 3 3 C2.01 3.495 2.01 3.495 1 4 C0.67 2.68 0.34 1.36 0 0 Z M-3 3 C-1.68 3.33 -0.36 3.66 1 4 C0.34 5.32 -0.32 6.64 -1 8 C-1.66 8 -2.32 8 -3 8 C-3 6.33333333 -3 4.66666667 -3 3 Z " fill="#E4E4E4" transform="translate(165,229)"/>
<path d="M0 0 C0.99 0.33 1.98 0.66 3 1 C3.6875 3.0625 3.6875 3.0625 4 5 C0.48283697 5 -0.37121748 4.17554415 -3 2 C-2.01 1.34 -1.02 0.68 0 0 Z " fill="#757676" transform="translate(160,229)"/>
<path d="M0 0 C-0.75 1.9375 -0.75 1.9375 -2 4 C-4.125 4.75 -4.125 4.75 -6 5 C-6.66 3.68 -7.32 2.36 -8 1 C-7.01 1.33 -6.02 1.66 -5 2 C-2 0 -2 0 0 0 Z " fill="#E3E3E3" transform="translate(23,220)"/>
<path d="M0 0 C0.99 0.33 1.98 0.66 3 1 C2.67 2.65 2.34 4.3 2 6 C1.01 5.34 0.02 4.68 -1 4 C-0.67 2.68 -0.34 1.36 0 0 Z " fill="#E7E7E7" transform="translate(130,245)"/>
<path d="M0 0 C3.45925163 1.2491742 6.14693203 2.67527795 9 5 C7.35 5.33 5.7 5.66 4 6 C2.68 4.02 1.36 2.04 0 0 Z " fill="#B5B6B6" transform="translate(179,212)"/>
<path d="M0 0 C2.475 0.99 2.475 0.99 5 2 C5 2.99 5 3.98 5 5 C4.01 4.34 3.02 3.68 2 3 C0.68 3.99 -0.64 4.98 -2 6 C-1.34 4.02 -0.68 2.04 0 0 Z " fill="#C5C6C6" transform="translate(172,206)"/>
<path d="M0 0 C1.32 0.33 2.64 0.66 4 1 C3.6875 2.875 3.6875 2.875 3 5 C2.01 5.66 1.02 6.32 0 7 C0.2784375 6.1028125 0.2784375 6.1028125 0.5625 5.1875 C1.22093687 2.83591238 1.22093687 2.83591238 0 0 Z " fill="#A7A7A7" transform="translate(87,57)"/>
<path d="M0 0 C1.98 0.99 1.98 0.99 4 2 C3.01 2.495 3.01 2.495 2 3 C2.33 4.32 2.66 5.64 3 7 C2.01 6.67 1.02 6.34 0 6 C0 4.02 0 2.04 0 0 Z " fill="#474748" transform="translate(163,226)"/>
<path d="M0 0 C2.64 0.33 5.28 0.66 8 1 C5.66785852 2.20628008 3.50357861 3.1654738 1 4 C0.67 2.68 0.34 1.36 0 0 Z " fill="#515652" transform="translate(46,139)"/>
</svg>
